<?xml version="1.0" encoding="UTF-8"?>
<!DOCTYPE svg PUBLIC "-//W3C//DTD SVG 1.1//EN" "http://www.w3.org/Graphics/SVG/1.1/DTD/svg11.dtd">
<!-- Creator: CorelDRAW -->
<svg xmlns="http://www.w3.org/2000/svg" xml:space="preserve" width="100px" height="100px" version="1.1" style="shape-rendering:geometricPrecision; text-rendering:geometricPrecision; image-rendering:optimizeQuality; fill-rule:evenodd; clip-rule:evenodd"
viewBox="0 0 100 100"
 xmlns:xlink="http://www.w3.org/1999/xlink"
 xmlns:xodm="http://www.corel.com/coreldraw/odm/2003">
 <defs>
  <style type="text/css">
   <![CDATA[
    .fil0 {fill:black;fill-rule:nonzero}
   ]]>
  </style>
 </defs>
 <g id="Layer_x0020_1">
  <metadata id="CorelCorpID_0Corel-Layer"/>
  <g id="_1635273818048">
   <path class="fil0" d="M92.762 48.846c0.386,-4.51 0.098,-9.493 -1.723,-13.691 -0.036,-0.083 -0.087,-0.148 -0.145,-0.199 -0.301,-1.082 -0.669,-2.146 -1.109,-3.185 -5.961,-14.094 -22.212,-20.02 -36.569,-18.388 -7.81,0.887 -15.425,3.578 -22.269,7.41 -6.324,3.542 -12.13,8.252 -16.303,14.224 -3.905,5.588 -6.132,12.101 -6.046,18.943 0.079,6.302 2.09,12.739 6.244,17.557 1.011,1.172 2.139,2.228 3.363,3.174 0.323,0.25 0.796,-0.169 0.449,-0.453 -10.114,-8.254 -10.781,-23.531 -4.835,-34.418 6.82,-12.486 20.66,-20.471 34.188,-23.583 13.625,-3.135 29.597,-0.125 37.759,12.228 8.069,12.212 3.475,28.438 -6.603,37.905 -12.692,11.922 -30.982,14.01 -47.636,12.972 -0.568,-0.035 -0.609,0.854 -0.05,0.912 8.443,0.888 16.724,0.938 25.085,-0.743 7.481,-1.504 14.665,-4.442 20.755,-9.084 5.777,-4.404 10.372,-10.222 12.781,-17.113 0.446,-1.275 0.814,-2.582 1.1,-3.909 -0.439,3.224 -1.315,6.391 -2.568,9.393 -3.108,7.451 -8.446,13.662 -15.239,18 -6.782,4.331 -14.693,6.858 -22.656,7.822 -8.64,1.046 -17.911,0.636 -26,-2.81 -8.076,-3.44 -14.992,-10.94 -15.476,-20.028 -0.004,-0.062 -0.119,-0.077 -0.123,-0.01 -0.504,7.806 4.016,14.945 10.403,19.146 7.971,5.243 18.052,6.369 27.384,5.848 16.956,-0.946 34.121,-8.895 42,-24.632 2.073,-4.141 3.443,-8.667 3.839,-13.288z"/>
   <path class="fil0" d="M16.79 33.206c-1.816,1.403 -3.27,3.493 -4.564,5.371 -1.359,1.975 -2.468,4.082 -3.276,6.34 -0.784,2.19 -1.25,4.533 -1.38,6.853 -0.145,2.586 0.299,4.876 0.821,7.384 0.056,0.274 0.514,0.292 0.496,-0.019 -0.133,-2.306 0.236,-4.81 0.596,-7.088 0.35,-2.208 0.856,-4.354 1.523,-6.485 0.68,-2.176 1.516,-4.315 2.588,-6.328 1.091,-2.049 2.592,-3.694 3.935,-5.558 0.315,-0.437 -0.432,-0.708 -0.739,-0.47z"/>
   <path class="fil0" d="M9.839 66.635c-0.793,-2.552 -1.309,-5.163 -1.439,-7.834 -0.127,-2.6 0.105,-5.19 0.703,-7.724 0.64,-2.709 1.949,-5.021 2.907,-7.591 0.233,-0.627 -0.652,-1.298 -1.118,-0.711 -1.657,2.085 -2.503,5.071 -3.072,7.632 -0.598,2.689 -0.824,5.493 -0.698,8.244 0.126,2.742 0.596,5.531 1.523,8.121 0.461,1.291 1.021,2.524 1.712,3.709 0.746,1.277 1.726,2.345 2.595,3.532 0.007,0.011 0.024,0.001 0.017,-0.009 -1.454,-2.121 -2.372,-4.927 -3.13,-7.369z"/>
   <path class="fil0" d="M63.268 15.814c-16.265,-1.851 -33.148,5.659 -43.544,18.068 -3.006,3.589 -5.551,7.401 -7.332,11.744 -0.01,0.024 0.026,0.041 0.039,0.018 3.795,-7.1 8.553,-13.414 14.896,-18.431 6.386,-5.05 14,-8.623 22.007,-10.139 4.58,-0.866 9.263,-1.038 13.913,-0.868 0.244,0.009 0.262,-0.364 0.021,-0.392z"/>
   <path class="fil0" d="M88.986 41.847c-0.144,-10.916 -8.296,-19.807 -17.93,-23.946 -0.488,-0.209 -0.892,0.455 -0.378,0.69 8.312,3.804 15.403,10.723 17.055,20.001 1.639,9.198 -2.337,18.398 -8.788,24.865 -6.665,6.682 -15.754,10.339 -24.86,12.228 -9.7,2.014 -21.07,3.055 -30.057,-1.965 -9.087,-5.075 -12.945,-15.952 -10.78,-25.856 0.007,-0.032 -0.049,-0.052 -0.06,-0.02 -3.106,8.206 -0.021,18.1 6.444,23.817 8.148,7.203 20.185,7.024 30.294,5.504 9.629,-1.447 19.296,-4.54 26.942,-10.765 7.197,-5.859 12.243,-15.137 12.118,-24.553z"/>
   <path class="fil0" d="M11.674 69.915c-0.775,-3.759 -1.507,-7.788 -2.902,-11.37 -0.006,-0.015 -0.032,-0.013 -0.03,0.004 0.412,3.815 1.639,7.722 2.691,11.405 0.033,0.119 0.268,0.094 0.241,-0.039z"/>
   <path class="fil0" d="M14.108 74.478c-0.599,-2.345 -1.454,-4.642 -2.208,-6.941 -0.019,-0.057 -0.117,-0.034 -0.098,0.028 0.686,2.32 1.289,4.695 2.129,6.964 0.039,0.102 0.205,0.061 0.177,-0.051z"/>
   <path class="fil0" d="M15.665 75.852c-0.687,-2.282 -1.507,-4.523 -2.296,-6.772 -0.018,-0.051 -0.105,-0.031 -0.088,0.026 0.699,2.276 1.369,4.564 2.169,6.808 0.044,0.124 0.256,0.075 0.215,-0.062z"/>
   <path class="fil0" d="M17.522 77.872c-0.736,-1.788 -1.504,-3.563 -2.259,-5.343 -0.012,-0.027 -0.062,-0.016 -0.05,0.014 0.749,1.783 1.484,3.571 2.251,5.346 0.014,0.032 0.073,0.019 0.058,-0.017z"/>
   <path class="fil0" d="M19.424 79.522c-0.775,-1.883 -1.636,-3.732 -2.465,-5.592 -0.022,-0.049 -0.111,-0.029 -0.088,0.025 0.781,1.877 1.532,3.768 2.367,5.62 0.047,0.103 0.233,0.062 0.186,-0.053z"/>
   <path class="fil0" d="M22.275 80.55c-0.48,-1.102 -1.203,-2.141 -1.801,-3.182 -0.013,-0.023 -0.059,-0.007 -0.046,0.019 0.531,1.073 0.992,2.244 1.636,3.252 0.064,0.101 0.265,0.035 0.211,-0.089z"/>
   <path class="fil0" d="M24.812 80.878c-0.273,-0.52 -0.566,-1.023 -0.864,-1.528 -0.321,-0.543 -0.604,-1.152 -1.007,-1.636 -0.023,-0.029 -0.075,-0.014 -0.064,0.027 0.161,0.563 0.49,1.105 0.744,1.633 0.261,0.543 0.521,1.084 0.809,1.614 0.109,0.2 0.5,0.115 0.382,-0.11z"/>
   <path class="fil0" d="M29.9 83.543c-0.609,-1.308 -1.33,-2.56 -1.99,-3.842 -0.017,-0.031 -0.076,-0.019 -0.059,0.017 0.598,1.298 1.135,2.626 1.785,3.901 0.072,0.14 0.339,0.084 0.264,-0.076z"/>
   <path class="fil0" d="M32.851 84.317c-0.847,-1.449 -1.914,-2.77 -2.847,-4.165 -0.037,-0.055 -0.133,-0.006 -0.094,0.055 0.91,1.407 1.699,2.906 2.692,4.255 0.105,0.144 0.346,0.021 0.249,-0.145z"/>
   <path class="fil0" d="M34.932 84.723c-0.87,-1.575 -1.849,-3.133 -2.863,-4.62 -0.029,-0.042 -0.117,-0.015 -0.091,0.039 0.771,1.61 1.621,3.227 2.541,4.758 0.121,0.2 0.54,0.052 0.413,-0.177z"/>
   <path class="fil0" d="M37.227 84.531c-0.367,-0.739 -0.886,-1.412 -1.352,-2.092 -0.512,-0.748 -1.005,-1.516 -1.558,-2.236 -0.033,-0.043 -0.131,-0.017 -0.101,0.043 0.363,0.729 0.787,1.428 1.19,2.136 0.443,0.778 0.851,1.619 1.399,2.329 0.138,0.179 0.547,0.073 0.422,-0.18z"/>
   <path class="fil0" d="M40.125 84.537c-0.426,-0.751 -1.044,-1.413 -1.581,-2.089 -0.487,-0.611 -0.937,-1.294 -1.512,-1.823 -0.062,-0.058 -0.199,0 -0.157,0.092 0.315,0.7 0.826,1.335 1.25,1.975 0.477,0.718 0.914,1.503 1.494,2.141 0.238,0.259 0.705,0.055 0.506,-0.296z"/>
   <path class="fil0" d="M42.836 84.272c-0.581,-1.184 -1.458,-2.28 -2.183,-3.382 -0.056,-0.085 -0.238,-0.027 -0.184,0.078 0.595,1.16 1.11,2.451 1.844,3.526 0.164,0.24 0.673,0.083 0.523,-0.222z"/>
   <path class="fil0" d="M46.378 84.748c-0.772,-1.309 -1.85,-2.485 -2.779,-3.687 -0.163,-0.209 -0.541,-0.026 -0.377,0.221 0.837,1.26 1.603,2.649 2.591,3.797 0.258,0.299 0.792,0.055 0.565,-0.331z"/>
   <path class="fil0" d="M49.868 84.62c-0.141,-0.58 -0.589,-1.132 -0.892,-1.645 -0.343,-0.582 -0.662,-1.19 -1.06,-1.737 -0.055,-0.076 -0.2,-0.031 -0.165,0.071 0.219,0.63 0.538,1.233 0.818,1.84 0.253,0.547 0.452,1.207 0.85,1.663 0.171,0.196 0.519,0.093 0.449,-0.192z"/>
   <path class="fil0" d="M54.009 84.243c-0.18,-0.597 -0.534,-1.161 -0.812,-1.719 -0.284,-0.569 -0.568,-1.139 -0.852,-1.708 -0.018,-0.036 -0.084,-0.024 -0.068,0.02 0.416,1.168 0.722,2.497 1.328,3.579 0.119,0.211 0.475,0.064 0.404,-0.172z"/>
   <path class="fil0" d="M57.653 83.177c-0.242,-0.524 -0.707,-0.957 -1.074,-1.397 -0.369,-0.442 -0.717,-0.926 -1.136,-1.321 -0.051,-0.048 -0.171,0.001 -0.132,0.077 0.256,0.506 0.619,0.967 0.936,1.437 0.32,0.476 0.609,1.036 1.041,1.417 0.145,0.128 0.464,0.002 0.365,-0.213z"/>
   <path class="fil0" d="M61.49 82.444c-0.39,-0.56 -0.957,-1.009 -1.45,-1.477 -0.545,-0.519 -1.091,-1.038 -1.637,-1.557 -0.138,-0.13 -0.42,0.053 -0.277,0.214 0.496,0.558 0.991,1.115 1.487,1.674 0.451,0.508 0.88,1.085 1.424,1.496 0.243,0.184 0.663,-0.049 0.453,-0.35z"/>
   <path class="fil0" d="M64.558 81.559c-0.257,-0.607 -0.839,-1.108 -1.271,-1.602 -0.491,-0.561 -0.973,-1.13 -1.486,-1.671 -0.143,-0.151 -0.447,-0.029 -0.308,0.18 0.407,0.61 0.849,1.197 1.281,1.79 0.389,0.535 0.745,1.203 1.279,1.598 0.209,0.155 0.638,0.019 0.505,-0.295z"/>
   <path class="fil0" d="M67.041 80.307c-0.159,-0.458 -0.563,-0.814 -0.875,-1.175 -0.346,-0.399 -0.692,-0.799 -1.038,-1.199 -0.193,-0.223 -0.629,-0.025 -0.429,0.251 0.309,0.421 0.617,0.843 0.925,1.264 0.286,0.392 0.543,0.859 0.953,1.13 0.204,0.135 0.568,0.028 0.464,-0.271z"/>
   <path class="fil0" d="M69.673 79.759c-0.234,-0.524 -0.66,-0.958 -1.016,-1.403 -0.388,-0.487 -0.777,-0.974 -1.166,-1.46 -0.191,-0.239 -0.63,-0.029 -0.437,0.255 0.348,0.511 0.696,1.021 1.044,1.532 0.323,0.474 0.612,1.001 1.044,1.386 0.212,0.189 0.669,0.001 0.531,-0.31z"/>
   <path class="fil0" d="M72.238 76.939c-0.571,-0.941 -1.402,-1.748 -2.16,-2.541 -0.028,-0.029 -0.072,0.008 -0.053,0.042 0.522,0.943 1.041,1.953 1.76,2.764 0.208,0.236 0.641,0.044 0.453,-0.265z"/>
   <path class="fil0" d="M75.219 76.109c-0.203,-0.528 -0.627,-0.984 -0.955,-1.439 -0.363,-0.501 -0.718,-1.006 -1.076,-1.511 -0.152,-0.214 -0.518,-0.028 -0.368,0.215 0.323,0.524 0.649,1.047 0.968,1.574 0.294,0.485 0.552,1.036 0.958,1.437 0.191,0.188 0.576,-0.006 0.473,-0.276z"/>
   <path class="fil0" d="M77.959 74.978c-0.217,-0.651 -0.82,-1.208 -1.246,-1.737l-1.464 -1.818c-0.18,-0.224 -0.595,-0.027 -0.411,0.24 0.435,0.637 0.871,1.273 1.307,1.91 0.391,0.571 0.745,1.287 1.308,1.7 0.223,0.164 0.611,0.02 0.506,-0.295z"/>
   <path class="fil0" d="M79.69 73.047c-0.257,-0.544 -0.733,-0.996 -1.117,-1.456 -0.425,-0.509 -0.851,-1.019 -1.276,-1.528 -0.118,-0.141 -0.382,-0.02 -0.266,0.155 0.361,0.547 0.722,1.094 1.083,1.641 0.331,0.502 0.625,1.077 1.071,1.484 0.199,0.181 0.644,-0.001 0.505,-0.296z"/>
   <path class="fil0" d="M82.161 70.953c-0.647,-0.865 -1.598,-1.571 -2.387,-2.306 -0.166,-0.154 -0.495,0.055 -0.33,0.255 0.68,0.825 1.323,1.802 2.141,2.496 0.299,0.254 0.849,-0.079 0.576,-0.445z"/>
   <path class="fil0" d="M83.855 69.012c-0.226,-0.491 -0.592,-0.926 -0.914,-1.358 -0.347,-0.466 -0.694,-0.932 -1.04,-1.397 -0.158,-0.212 -0.512,-0.032 -0.369,0.215l0.825 1.418c0.27,0.465 0.523,0.983 0.883,1.384 0.209,0.233 0.793,0.127 0.615,-0.262z"/>
   <path class="fil0" d="M84.572 65.198c-0.301,-0.473 -0.606,-0.943 -0.909,-1.415 -0.117,-0.182 -0.492,-0.059 -0.385,0.165 0.238,0.499 0.474,0.999 0.714,1.497 0.191,0.398 0.335,0.97 0.763,1.155 0.149,0.064 0.343,0.012 0.384,-0.161 0.103,-0.438 -0.343,-0.888 -0.567,-1.241z"/>
   <path class="fil0" d="M87.293 64.171c-0.243,-0.402 -0.614,-0.742 -0.928,-1.09 -0.323,-0.355 -0.645,-0.711 -0.968,-1.067 -0.172,-0.19 -0.557,-0.021 -0.377,0.22 0.565,0.758 1.091,1.673 1.789,2.311 0.26,0.238 0.673,-0.061 0.484,-0.374z"/>
   <path class="fil0" d="M88.099 61.588c-0.092,-0.403 -0.305,-0.761 -0.487,-1.13 -0.193,-0.392 -0.387,-0.784 -0.58,-1.176 -0.131,-0.266 -0.618,-0.174 -0.499,0.143l0.456 1.212c0.144,0.382 0.259,0.787 0.486,1.129 0.155,0.232 0.703,0.16 0.624,-0.178z"/>
   <path class="fil0" d="M88.935 58.13c-0.007,-0.267 -0.13,-0.476 -0.242,-0.715 -0.111,-0.237 -0.222,-0.475 -0.333,-0.712 -0.123,-0.264 -0.566,-0.172 -0.479,0.138 0.07,0.249 0.14,0.499 0.209,0.748 0.072,0.257 0.119,0.488 0.287,0.701 0.169,0.214 0.566,0.146 0.558,-0.16z"/>
   <path class="fil0" d="M90.696 56.089c-0.037,-0.273 -0.229,-0.518 -0.365,-0.754l-0.434 -0.752c-0.126,-0.217 -0.525,-0.07 -0.431,0.184 0.094,0.255 0.187,0.51 0.282,0.764 0.088,0.242 0.15,0.543 0.324,0.737 0.179,0.202 0.673,0.188 0.624,-0.179z"/>
   <path class="fil0" d="M91.399 51.22c-0.045,-0.292 -0.126,-0.633 -0.272,-0.891 -0.065,-0.115 -0.262,-0.078 -0.291,0.044 -0.033,0.138 -0.021,0.284 -0.021,0.425 0.001,0.15 0.002,0.294 0.025,0.444 0.048,0.319 0.61,0.313 0.559,-0.022z"/>
   <path class="fil0" d="M92.752 48.782c-0.073,-0.126 -0.146,-0.253 -0.219,-0.378 -0.096,-0.166 -0.36,-0.197 -0.513,-0.107 -0.163,0.096 -0.209,0.309 -0.096,0.461 0.088,0.118 0.175,0.236 0.262,0.354 0.241,0.325 0.784,0.048 0.566,-0.33z"/>
   <path class="fil0" d="M63.533 56.075c-3.48,2.587 -7.739,4.6 -12.054,5.486 1.483,-5.28 2.956,-10.563 4.42,-15.849 0.606,-2.185 1.199,-4.373 1.788,-6.563 0.151,-0.012 0.301,-0.025 0.451,-0.034 4.006,-0.267 9.199,0.529 10.688,4.9 1.635,4.803 -1.607,9.32 -5.293,12.06zm-23.738 4.467c0.756,-1.776 1.512,-3.552 2.267,-5.329 1.548,-3.64 3.047,-7.299 4.555,-10.956 0.553,-1.341 1.106,-2.682 1.66,-4.022 2.101,-0.059 4.223,-0.412 6.328,-0.716 -0.572,1.815 -1.139,3.632 -1.699,5.451 -1.746,5.682 -3.484,11.366 -5.21,17.055 -2.701,0.082 -5.445,-0.39 -7.901,-1.483zm0.711 -26.44c-0.698,-2.262 1.492,-3.954 3.262,-4.843 2.349,-1.179 4.958,-1.766 7.594,-1.88 -0.74,1.626 -1.485,3.251 -2.214,4.882 -0.808,1.805 -1.607,3.613 -2.406,5.422 -0.255,-0.022 -0.511,-0.047 -0.766,-0.082 -2.077,-0.282 -4.782,-1.266 -5.47,-3.499zm12.697 -5.938c0.1,-0.249 0.211,-0.509 0.326,-0.774 1.434,0.074 2.858,0.279 4.233,0.599 0.185,0.044 0.369,0.093 0.552,0.141 -0.043,0.128 -0.086,0.257 -0.129,0.384 -0.633,1.846 -1.262,3.693 -1.854,5.553 -0.314,0.988 -0.626,1.977 -0.939,2.965 -2.028,0.268 -4.052,0.604 -6.081,0.694 0.576,-1.396 1.153,-2.793 1.728,-4.19 0.735,-1.785 1.445,-3.58 2.164,-5.372zm18.308 15.385c-1.357,-4.279 -5.527,-6.299 -9.712,-6.764 -1.158,-0.128 -2.312,-0.126 -3.463,-0.054 0.181,-0.678 0.364,-1.354 0.544,-2.032 0.502,-1.879 0.965,-3.769 1.424,-5.659 0.022,-0.091 0.045,-0.182 0.068,-0.273 1.462,0.532 2.865,1.211 4.21,2.023 2.085,1.261 3.841,2.887 5.863,4.215 0.222,0.145 0.6,-0.077 0.506,-0.35 -1.257,-3.662 -5.377,-6.263 -8.771,-7.731 -0.411,-0.178 -0.828,-0.341 -1.248,-0.497 0.19,-0.912 0.323,-1.832 0.306,-2.747 -0.008,-0.478 -0.696,-0.604 -0.94,-0.229 -0.481,0.737 -0.852,1.545 -1.175,2.375 -1.504,-0.438 -3.045,-0.742 -4.603,-0.893 0.265,-0.798 0.444,-1.599 0.415,-2.356 -0.014,-0.36 -0.491,-0.514 -0.745,-0.278 -0.708,0.659 -1.236,1.574 -1.688,2.523 -0.807,-0.01 -1.616,0.02 -2.423,0.094 -3.952,0.364 -8.762,1.548 -11.349,4.809 -2.927,3.688 -0.219,8.011 3.592,9.561 1.099,0.448 2.215,0.71 3.341,0.844 -0.444,1.007 -0.888,2.015 -1.333,3.022 -1.57,3.548 -3.156,7.09 -4.686,10.655 -0.764,1.78 -1.529,3.56 -2.293,5.341 -0.002,0.006 -0.006,0.012 -0.008,0.019 -0.735,-0.511 -1.429,-1.088 -2.062,-1.745 -3.58,-3.709 -4.354,-9.546 -1.56,-13.918 1.005,-1.572 -1.566,-2.694 -2.555,-1.344 -2.64,3.601 -2.765,8.612 -1.033,12.633 1.258,2.924 3.419,5.222 6.041,6.868 -0.514,1.102 -0.985,2.228 -1.189,3.345 -0.252,1.381 1.585,1.994 2.369,0.899 0.605,-0.846 1.055,-1.85 1.461,-2.871 0.425,0.182 0.854,0.352 1.291,0.504 2.194,0.762 4.494,1.098 6.8,1.093 -0.246,0.815 -0.496,1.629 -0.741,2.445 -0.634,2.108 2.942,2.897 3.517,0.873 0.343,-1.208 0.679,-2.417 1.019,-3.625 1.32,-0.208 2.623,-0.513 3.892,-0.908 4.68,-1.458 9.53,-3.903 13.042,-7.38 3.239,-3.209 5.322,-7.932 3.876,-12.487z"/>
  </g>
 </g>
</svg>
