<?xml version="1.0" encoding="UTF-8"?>
<!DOCTYPE svg PUBLIC "-//W3C//DTD SVG 1.1//EN" "http://www.w3.org/Graphics/SVG/1.1/DTD/svg11.dtd">
<!-- Creator: CorelDRAW -->
<svg xmlns="http://www.w3.org/2000/svg" xml:space="preserve" width="100px" height="80px" version="1.1" style="shape-rendering:geometricPrecision; text-rendering:geometricPrecision; image-rendering:optimizeQuality; fill-rule:evenodd; clip-rule:evenodd"
viewBox="0 0 100 80"
 xmlns:xlink="http://www.w3.org/1999/xlink"
 xmlns:xodm="http://www.corel.com/coreldraw/odm/2003">
 <defs>
  <style type="text/css">
   <![CDATA[
    .fil0 {fill:black}
   ]]>
  </style>
 </defs>
 <g id="Layer_x0020_1">
  <metadata id="CorelCorpID_0Corel-Layer"/>
  <g id="_2551561700672">
   <path class="fil0" d="M2.072 12.593c-0.126,-0.099 -0.239,-0.211 -0.339,-0.337 -0.024,-0.918 2.123,-1.596 2.2,-0.677 0.058,0.702 -1.457,0.55 -1.861,1.014z"/>
   <path class="fil0" d="M4.947 12.763c0.167,0.795 -0.636,0.561 -1.014,0.676 -1.138,0.345 -1.883,1.029 -2.453,1.945 -1.215,-0.473 0.055,-1.736 0.592,-2.114 0.757,-0.532 2.141,-1.053 2.875,-0.507z"/>
   <path class="fil0" d="M83.94 39.93c-0.105,0.035 -0.172,0.108 -0.169,0.253 0.056,3.073 -0.112,6.371 0.084,9.302 0.637,-1.578 1.354,-3.004 2.03,-4.481 0.67,-1.464 1.45,-3.009 1.522,-4.991 -0.99,-0.193 -2.337,-0.031 -3.467,-0.083zm-5.836 13.953c1.107,-0.274 2.624,-0.139 3.975,-0.169 0,-4.595 0,-9.19 0,-13.784 -1.297,0 -2.593,0 -3.89,0 -0.197,4.482 -0.028,9.33 -0.085,13.953zm-6.004 -13.7c0,4.539 0,9.077 0,13.616 1.358,0.137 2.815,0.172 4.314,0.169 0,-4.652 0,-9.303 0,-13.955 -1.216,-0.194 -2.79,-0.029 -4.145,-0.083 -0.108,0.035 -0.172,0.108 -0.169,0.253zm-6.175 0c0,4.511 0,9.021 0,13.531 1.247,0.304 2.983,0.12 4.484,0.169 0,-4.65 0,-9.302 0,-13.953 -1.467,0 -2.933,0 -4.399,0 -0.098,0.013 -0.09,0.132 -0.085,0.253zm-6.257 -0.253c-0.105,0.035 -0.173,0.108 -0.17,0.253 0.098,4.17 -0.08,9.186 0.085,13.531 1.522,0 3.044,0 4.567,0 0,-4.595 0,-9.19 0,-13.784 -1.494,0 -2.988,0 -4.482,0zm-6.85 13.953c1.801,0.082 3.146,-0.292 4.99,-0.169 0,-4.595 0,-9.19 0,-13.784 -1.636,0 -3.271,0 -4.906,0 -0.197,4.482 -0.029,9.33 -0.084,13.953zm-6.259 -13.7c0.327,2.58 -0.444,4.864 0,7.104 0.19,0.956 1.094,2.055 1.607,2.959 0.617,1.089 1.006,2.188 1.691,2.961 0.482,0.056 0.803,0.267 1.185,0.423 0,-4.568 0,-9.134 0,-13.7 -1.467,0 -2.932,0 -4.398,0 -0.099,0.013 -0.092,0.132 -0.085,0.253zm-1.69 2.875c0,-1.014 0,-2.03 0,-3.045 -0.304,-0.175 -0.916,-0.042 -1.354,-0.083 0.397,1.095 0.748,2.24 1.354,3.128zm44.23 -12.094c0.006,1.782 -0.079,4.354 0.085,6.259 0.679,-2.085 1.974,-3.553 2.03,-6.259 -0.705,0 -1.411,0 -2.115,0zm-5.244 0c-0.24,1.949 0.003,4.835 -0.084,7.189 1.018,0.194 2.394,0.031 3.551,0.085 0.219,-2.256 0.03,-5.262 0,-7.274 -1.156,0 -2.311,0 -3.467,0zm-5.666 0c-0.197,2.255 -0.028,4.876 -0.085,7.274 1.298,0 2.594,0 3.892,0 0.194,-2.244 0.06,-5.282 0,-7.274 -1.27,0 -2.538,0 -3.807,0zm-6.004 0c-0.142,2.228 -0.141,5.046 0,7.274 1.383,-0.054 2.985,0.109 4.229,-0.085 0,-2.367 0,-4.736 0,-7.105 -1.244,-0.193 -2.846,-0.029 -4.229,-0.084zm-6.175 0c-0.197,2.255 -0.027,4.876 -0.085,7.274 1.496,0 2.989,0 4.484,0 0,-2.425 0,-4.849 0,-7.274 -1.467,0 -2.933,0 -4.399,0zm-6.342 0c-0.105,0.035 -0.173,0.109 -0.17,0.254 0.099,2.328 -0.084,4.594 0.085,7.02 1.522,0 3.044,0 4.567,0 0,-2.425 0,-4.849 0,-7.274 -1.494,0 -2.988,0 -4.482,0zm-6.766 0c-0.197,2.255 -0.029,4.876 -0.084,7.274 1.663,0 3.326,0 4.99,0 0,-2.425 0,-4.849 0,-7.274 -1.636,0 -3.271,0 -4.906,0zm-6.258 0c-0.198,2.255 -0.029,4.876 -0.085,7.274 1.494,0 2.988,0 4.483,0 0,-2.425 0,-4.849 0,-7.274 -1.467,0 -2.932,0 -4.398,0zm-3.891 7.274c0.684,-0.049 1.569,0.103 2.116,-0.085 0,-2.397 0,-4.793 0,-7.189 -1.749,0.057 -3.722,-0.112 -5.33,0.084 1.197,2.272 1.951,4.985 3.214,7.19zm-35.774 -19.368c0.459,-0.064 0.656,0.134 1.1,0.085 0.19,-0.732 0.075,-1.797 -0.085,-2.453 -1.474,-0.346 -0.545,1.71 -1.015,2.368zm-2.029 -1.69c0.005,0.388 -0.038,0.827 0.084,1.098 0.307,0.174 0.64,0.318 1.015,0.424 0.179,-0.565 0.4,-1.504 0.169,-2.2 -0.545,0.103 -0.875,0.421 -1.268,0.678zm19.452 1.775c0.263,0.159 0.909,0.098 1.183,0 0,-0.789 0,-1.578 0,-2.368 -0.37,-0.081 -0.756,-0.147 -1.183,-0.169 0,0.846 0,1.692 0,2.537zm-2.199 0.169c0.422,0 0.845,0 1.268,0 0,-0.958 0,-1.917 0,-2.875 -0.423,0 -0.846,0 -1.268,0 0,0.958 0,1.917 0,2.875zm-8.626 0c0.393,0 0.788,0 1.183,0 0.206,-0.837 0.318,-1.769 0.253,-2.875 -0.451,0 -0.901,0 -1.353,0 -0.013,0.973 0.053,2.024 -0.083,2.875zm-2.368 0c0.478,0 0.957,0 1.437,0 0.087,-0.879 0.294,-1.967 0.084,-2.875 -0.48,0.054 -1.182,-0.11 -1.521,0.085 0.159,0.753 0.113,2.029 0,2.79zm-2.284 -2.706c0.144,0.73 0.066,1.681 0.084,2.537 0.278,0.174 0.857,0.046 1.269,0.084 0.137,-0.758 0.137,-2.032 0,-2.79 -0.477,0.03 -0.912,0.103 -1.353,0.169zm11.079 2.706c0.421,0 0.845,0 1.268,0 0,-0.958 0,-1.917 0,-2.875 -0.515,0.064 -0.763,-0.14 -1.184,-0.17 0.168,0.898 0.117,2.244 -0.084,3.045zm-4.314 0c0.367,0 0.734,0 1.1,0 0.145,-0.846 0.126,-2.194 0,-3.045 -0.283,0 -0.564,0 -0.846,0 0.059,1.158 -0.049,2.15 -0.254,3.045zm2.031 0c0.45,0 0.901,0 1.353,0 0.231,-0.772 0.234,-2.164 0.085,-3.045 -0.421,-0.034 -1.141,-0.21 -1.524,0 0.319,0.701 0.172,2.206 0.086,3.045zm9.725 -2.283c1.312,0.152 2.984,-0.437 4.228,0 0.846,0.297 1.686,1.834 2.2,2.706 1.793,3.052 3.214,6.964 4.905,9.642 15.671,0 31.713,0 47.529,0 2.157,0 4.41,-0.246 6.428,0.337 0.281,1.444 0.173,3.356 -0.254,4.652 -0.207,0.625 -0.721,1.259 -1.015,1.946 -0.584,1.359 -1.2,2.659 -1.776,4.059 -0.288,0.697 -0.412,1.417 -0.677,2.198 -0.168,0.497 -0.578,0.974 -0.846,1.523 -0.768,1.575 -1.368,3.247 -2.113,4.905 -0.392,0.868 -1.018,2.201 -1.354,3.383 -0.417,1.478 -0.526,2.774 -1.523,3.129 -0.867,0.308 -2.351,0.017 -3.383,0.085 -1.885,0.124 -4.108,0.322 -6.172,0.168 -3.177,-0.236 -6.522,-0.1 -9.727,-0.168 -3.086,-0.067 -6.208,-0.013 -9.049,0.168 -0.762,0.049 -1.623,0.053 -2.369,0 -0.713,-0.048 -1.612,-0.026 -2.198,-0.168 -0.226,-0.055 -1.712,-1.005 -1.945,-1.269 -0.954,-1.08 -1.532,-2.887 -2.367,-4.313 -1.662,-2.837 -2.695,-6.093 -4.061,-9.218 -0.686,-1.572 -1.499,-3.032 -2.113,-4.482 -1.343,-3.173 -2.549,-6.259 -4.143,-9.135 -1.632,-2.937 -2.595,-6.158 -4.738,-8.542 -1.306,-0.094 -2.299,0.126 -3.467,0.17 -0.051,3.06 -5.414,2.198 -7.104,2.198 -4.084,0 -6.375,-0.057 -11.417,-0.084 -2.155,-0.012 -5.048,-0.355 -5.582,-2.029 -0.654,-2.05 0.786,-3.6 2.283,-3.891 0.696,-0.135 1.576,0.058 2.453,0 0.634,-0.042 1.316,-0.285 1.945,-0.338 2.314,-0.195 4.797,0.322 6.682,-0.169 0.323,-0.085 0.996,-0.135 1.69,-0.085 1.462,0.107 3.362,0.133 4.99,0.254 1.929,0.143 4.155,0.342 4.06,2.368z"/>
   <path class="fil0" d="M94.829 38.077c-0.637,-0.294 -0.093,-1.01 0.084,-1.437 0.756,-1.822 1.758,-5.343 0.931,-7.949 -0.143,-0.454 -0.488,-0.764 -0.509,-1.185 0.732,-1.237 1.522,1.169 1.608,1.945 0.24,2.142 -0.185,4.287 -0.677,6.006 -0.34,1.189 -0.618,2.572 -1.437,2.62z"/>
   <path class="fil0" d="M33.279 28.832c0.489,2.015 1.17,3.792 2.198,5.328 0.291,0.432 0.97,0.928 0.593,1.522 -1.089,-0.04 -1.791,-1.643 -2.284,-2.622 -0.564,-1.124 -1.104,-2.478 -1.184,-3.891 0.156,-0.181 0.247,-0.429 0.677,-0.337z"/>
   <path class="fil0" d="M98.972 31.228c0.165,1.527 0.045,3.477 -1.268,3.805 -0.569,-0.958 1.057,-2.329 0.338,-3.721 0.133,-0.413 0.689,-0.393 0.93,-0.084z"/>
   <path class="fil0" d="M33.195 34.582c-0.114,0.085 -0.257,0.14 -0.339,0.254 -0.684,-0.472 -1.46,-0.85 -1.522,-1.946 0.799,-0.498 1.631,0.811 1.861,1.692z"/>
   <path class="fil0" d="M80.723 58.009c0.276,-1.526 1.576,-0.159 2.03,0.677 0.277,0.508 0.688,1.665 0.761,2.283 0.122,1.031 0.119,2.623 -0.591,2.452 -0.618,-0.148 -0.233,-1.637 -0.339,-2.452 -0.166,-1.299 -0.968,-2.456 -1.861,-2.96z"/>
   <path class="fil0" d="M54.725 56.654c1.866,0.047 2.876,2.841 3.045,4.566 0.078,0.805 0.039,1.734 -0.424,1.776 -0.702,0.065 -0.462,-1.055 -0.506,-1.606 -0.104,-1.302 -0.657,-2.883 -1.523,-3.637 -0.278,-0.242 -1.337,-0.513 -0.592,-1.099z"/>
   <path class="fil0" d="M50.426 60.856c-0.578,0.91 0.261,2.611 0.93,3.214 1.823,0.507 3.115,-2.022 1.862,-3.299 -0.935,-0.352 -2.195,-0.854 -2.792,0.085zm-1.1 -1.945c0.959,-0.705 3.04,-1.224 4.568,-0.592 1.803,0.745 2.811,5.127 1.438,7.02 -0.803,1.106 -3.14,1.622 -4.906,0.93 -1.515,-0.594 -2.973,-2.584 -2.791,-4.314 0.134,-1.265 1.099,-1.865 1.691,-3.044z"/>
   <path class="fil0" d="M76.241 61.561c-0.594,0.935 0.286,2.598 0.93,3.214 1.823,0.506 3.115,-2.022 1.861,-3.298 -0.941,-0.372 -2.209,-0.831 -2.791,0.084zm-1.099 -1.945c0.958,-0.705 3.038,-1.224 4.568,-0.593 1.803,0.746 2.808,5.127 1.436,7.02 -0.803,1.107 -3.139,1.621 -4.905,0.93 -1.516,-0.593 -2.973,-2.582 -2.791,-4.313 0.134,-1.266 1.1,-1.865 1.692,-3.044z"/>
   <path class="fil0" d="M59.308 60.941c-0.098,-0.013 -0.15,0.018 -0.169,0.084 -1,-0.157 -0.726,-1.586 -0.929,-2.537 1.152,-0.656 1.218,1.828 1.098,2.453z"/>
   <path class="fil0" d="M71.083 59.277c0.231,0.62 -0.497,1.104 -0.76,1.607 -0.181,0.339 -0.157,1.149 -0.847,0.931 -0.398,-1.084 0.486,-2.694 1.607,-2.538z"/>
   <path class="fil0" d="M72.605 65.536c-1.261,0.286 -1.455,-1.28 -1.269,-2.96 0.132,-1.194 1.085,-3.004 1.861,-3.045 1.423,-0.073 0,1.024 -0.254,1.353 -0.61,0.79 -0.932,2.4 -0.677,3.467 0.118,0.49 0.494,0.435 0.339,1.185z"/>
   <path class="fil0" d="M47.637 59.587c-0.051,0.897 -0.391,0.717 -0.592,1.184 -0.632,1.477 -0.262,3.402 0.508,4.314 0.251,0.299 0.798,0.511 0.761,0.846 -0.112,0.991 -1.33,-0.044 -1.607,-0.424 -0.377,-0.514 -0.779,-1.505 -0.845,-1.944 -0.237,-1.568 0.309,-4.64 1.775,-3.976z"/>
   <path class="fil0" d="M83.854 65.281c-0.245,-1.174 0.794,-2.961 0.168,-4.566 1.038,-1.226 1.188,1.416 1.015,2.622 -0.139,0.974 -0.471,2.201 -1.183,1.944z"/>
   <path class="fil0" d="M78.271 61.73c0.09,0.456 -0.28,0.452 -0.423,0.676 -0.173,0.459 0.188,1.014 -0.169,1.354 -0.274,0.049 -0.393,-0.058 -0.592,-0.085 -0.611,-0.918 0.247,-3.111 1.184,-1.945z"/>
   <path class="fil0" d="M52.437 60.941c-0.014,0.098 0.018,0.149 0.084,0.169 0.116,0.537 -0.359,0.486 -0.508,0.76 -0.131,0.677 0.284,1.39 -0.083,1.777 -0.267,0.131 -0.372,-0.046 -0.677,-0.084 -0.366,-0.985 -0.371,-3.298 1.184,-2.622z"/>
   <path class="fil0" d="M45.438 62.293c0.049,0.629 0.256,1.098 0.338,1.692 -0.112,0.085 -0.255,0.14 -0.338,0.254 -0.915,0.181 -1.222,-2.496 0,-1.946z"/>
   <path class="fil0" d="M57.871 65.254c-0.194,0.614 -0.759,1.601 -1.523,1.099 0.024,-0.815 0.96,-1.866 1.523,-1.099z"/>
   <path class="fil0" d="M82.5 66.804c-0.028,0.959 -0.678,1.491 -1.522,1.776 -0.717,0.243 -3.855,0.612 -3.636,-0.338 0.13,-0.576 2.48,-0.261 3.381,-0.592 0.567,-0.208 0.963,-0.579 1.1,-1.015 0.324,-0.042 0.541,0.024 0.677,0.169z"/>
  </g>
 </g>
</svg>
