<?xml version="1.0" encoding="UTF-8"?>
<!DOCTYPE svg PUBLIC "-//W3C//DTD SVG 1.1//EN" "http://www.w3.org/Graphics/SVG/1.1/DTD/svg11.dtd">
<!-- Creator: CorelDRAW -->
<svg xmlns="http://www.w3.org/2000/svg" xml:space="preserve" width="100px" height="100px" version="1.1" style="shape-rendering:geometricPrecision; text-rendering:geometricPrecision; image-rendering:optimizeQuality; fill-rule:evenodd; clip-rule:evenodd"
viewBox="0 0 100 100"
 xmlns:xlink="http://www.w3.org/1999/xlink"
 xmlns:xodm="http://www.corel.com/coreldraw/odm/2003">
 <defs>
  <style type="text/css">
   <![CDATA[
    .str0 {stroke:black;stroke-width:0.316;stroke-miterlimit:10}
    .fil0 {fill:black;fill-rule:nonzero}
   ]]>
  </style>
 </defs>
 <g id="Layer_x0020_1">
  <metadata id="CorelCorpID_0Corel-Layer"/>
  <g id="_2551767609280">
   <path class="fil0 str0" d="M99.145 81.736c-11.23,-9.973 -25.56,-16.257 -40.48,-17.897 -13.628,-1.498 -27.551,1.128 -39.788,7.285 -6.729,3.385 -12.951,7.822 -18.176,13.259 -0.156,0.162 0.106,0.383 0.259,0.241 9.705,-8.974 21.574,-15.488 34.498,-18.399 13.899,-3.131 28.474,-1.922 41.718,3.315 7.718,3.052 14.897,7.459 21.093,12.981 0.564,0.504 1.492,-0.238 0.876,-0.785z"/>
   <path class="fil0 str0" d="M73.197 72.7c-1.399,-0.804 -3.212,-1.152 -4.769,-1.546 -1.566,-0.396 -3.152,-0.718 -4.749,-0.964 -3.252,-0.505 -6.552,-0.707 -9.842,-0.609 -6.508,0.195 -13.011,1.537 -19.02,4.058 -3.426,1.437 -8.62,4.239 -11.527,6.555 -0.136,0.109 0.019,0.288 0.159,0.208 5.62,-3.222 13.445,-6.914 19.786,-8.34 6.29,-1.414 12.825,-1.724 19.214,-0.85 1.728,0.236 3.443,0.558 5.138,0.968 0.869,0.209 1.732,0.441 2.588,0.695 0.892,0.266 1.767,0.638 2.686,0.791 0.639,0.106 0.886,-0.651 0.336,-0.966z"/>
   <path class="fil0 str0" d="M80.923 79.873c0.099,-0.258 0.14,-0.517 0.139,-0.78 -0.09,-0.132 -0.176,-0.267 -0.249,-0.407 -0.487,-0.533 -1.108,-0.963 -1.664,-1.417 -0.708,-0.576 -1.423,-1.141 -2.142,-1.703 -1.382,-1.081 -2.796,-2.233 -4.314,-3.115 -0.193,-0.112 -0.498,0.078 -0.316,0.292 1.102,1.29 2.457,2.425 3.728,3.545 0.623,0.548 1.246,1.096 1.88,1.632 0.077,0.065 0.155,0.133 0.233,0.201 -12.528,-2.849 -25.925,-2.245 -38.066,1.977 -3.653,1.271 -7.526,2.753 -10.716,4.983 -0.011,0.008 -0.017,0.017 -0.025,0.026 -1.087,-1.017 -4.347,-4.011 -5.576,-4.794 -0.132,-0.083 -0.327,0.055 -0.212,0.197 0.968,1.205 3.765,3.988 5.329,5.337 0.251,-0.16 0.51,-0.308 0.773,-0.441 -0.029,-0.028 -0.057,-0.056 -0.087,-0.084 3.192,-1.27 6.261,-2.784 9.522,-3.894 3.299,-1.124 6.667,-2.035 10.093,-2.678 6.796,-1.276 13.767,-1.589 20.644,-0.849 3.667,0.394 7.296,1.082 10.851,2.062 0.06,-0.028 0.118,-0.058 0.175,-0.09z"/>
   <path class="fil0 str0" d="M30.322 55.996c7.741,6.998 19.856,6.638 28.485,1.571 8.359,-4.909 13.752,-14.55 12.608,-24.318 -1.037,-8.84 -8.195,-16.598 -17.115,-17.819 -1.033,-0.141 -2.067,-0.203 -3.109,-0.173 -0.106,0.003 -0.092,0.154 0.014,0.15 8.742,-0.202 16.668,6.57 18.903,14.832 2.443,9.035 -1.592,19.035 -8.857,24.67 -7.728,5.995 -19.242,7.69 -27.723,2.214 -7.335,-4.736 -10.275,-14.276 -8.23,-22.564 2.142,-8.681 9.704,-15.239 18.093,-17.694 1.07,-0.313 2.161,-0.571 3.252,-0.792 0.461,-0.095 0.433,-0.743 -0.06,-0.684 -9.107,1.119 -17.907,7.449 -21.393,15.998 -3.348,8.211 -1.549,18.569 5.132,24.609z"/>
   <path class="fil0 str0" d="M35.866 58.691c-7.235,-2.887 -12.967,-8.903 -14.799,-16.569 -1.86,-7.78 0.302,-16.079 5.857,-21.853 3.001,-3.121 6.733,-5.248 10.815,-6.613 0.071,-0.022 0.036,-0.115 -0.033,-0.1 -7.733,1.483 -14.281,7.696 -16.909,14.997 -2.828,7.861 -1.384,16.83 3.897,23.316 2.822,3.467 6.672,6.275 10.956,7.622 0.572,0.18 0.745,-0.589 0.216,-0.8z"/>
   <path class="fil0 str0" d="M61.81 18.252c-0.587,-0.739 -1.431,-1.336 -2.185,-1.891 -0.791,-0.589 -1.615,-1.119 -2.481,-1.587 -1.744,-0.934 -3.591,-1.648 -5.507,-2.138 -3.836,-0.983 -7.878,-1.078 -11.71,-0.044 -0.028,0.007 -0.013,0.04 0.012,0.037 3.834,-0.575 7.783,-0.39 11.517,0.67 1.825,0.518 3.603,1.236 5.273,2.134 0.836,0.449 1.657,0.931 2.45,1.45 0.79,0.519 1.498,1.174 2.298,1.667 0.182,0.115 0.495,-0.095 0.333,-0.298z"/>
   <path class="fil0 str0" d="M28.966 50.554c-2.108,-3.758 -3.078,-8.248 -2.495,-12.535 0.001,-0.011 -0.012,-0.015 -0.014,-0.007 -0.844,4.386 -0.144,8.869 2.207,12.695 0.109,0.177 0.413,0.046 0.302,-0.153z"/>
   <path class="fil0 str0" d="M48.566 59.404c-3.389,0.151 -6.698,-0.279 -9.864,-1.546 -3.108,-1.243 -6.035,-3.14 -8.322,-5.599 -0.008,-0.009 -0.025,0.001 -0.017,0.011 4.313,5.302 11.397,8.419 18.262,7.464 0.209,-0.029 0.137,-0.34 -0.059,-0.33z"/>
   <path class="fil0 str0" d="M66.136 47.367c-0.922,1.373 -1.808,2.711 -2.94,3.929 -1.08,1.164 -2.27,2.225 -3.549,3.166 -1.294,0.953 -2.683,1.777 -4.124,2.486 -1.46,0.718 -2.991,1.17 -4.499,1.755 -0.038,0.015 -0.004,0.058 0.026,0.055 1.585,-0.218 3.196,-0.885 4.64,-1.551 1.457,-0.672 2.834,-1.504 4.129,-2.449 1.337,-0.976 2.582,-2.079 3.709,-3.292 1.098,-1.182 2.199,-2.476 2.998,-3.882 0.135,-0.239 -0.246,-0.435 -0.39,-0.217z"/>
   <path class="fil0 str0" d="M69.031 40.411c0.458,-1.81 0.702,-3.684 0.727,-5.553 0.026,-1.877 -0.174,-3.758 -0.614,-5.584 -0.422,-1.751 -0.998,-3.757 -2.116,-5.2 -0.148,-0.191 -0.573,-0.132 -0.471,0.166 0.285,0.839 0.706,1.623 1.031,2.447 0.328,0.828 0.617,1.675 0.849,2.536 0.484,1.8 0.753,3.658 0.796,5.52 0.043,1.84 -0.138,3.677 -0.554,5.466 -0.201,0.868 -0.453,1.725 -0.759,2.565 -0.309,0.85 -0.791,1.689 -1.016,2.565 -0.011,0.044 0.055,0.081 0.085,0.048 0.532,-0.622 0.856,-1.483 1.157,-2.234 0.357,-0.894 0.65,-1.811 0.885,-2.742z"/>
   <path class="fil0 str0" d="M39.728 19.699c-6.905,2.171 -12.158,8.917 -12.702,16.104 -0.002,0.026 0.045,0.034 0.049,0.008 1.271,-7.118 6.199,-12.995 12.879,-15.667 0.284,-0.114 0.034,-0.526 -0.226,-0.445z"/>
   <path class="fil0 str0" d="M66.588 23.695c-2.027,-2.859 -5.167,-4.957 -8.394,-6.22 -3.209,-1.258 -6.735,-1.659 -10.143,-1.137 -1.947,0.302 -3.827,0.942 -5.59,1.815 -0.017,0.011 -0.002,0.029 0.013,0.025 3.958,-1.707 8.551,-2.171 12.75,-1.177 2.125,0.504 4.144,1.387 5.972,2.576 1.886,1.226 3.429,2.745 4.916,4.42 0.204,0.232 0.679,-0.018 0.476,-0.302z"/>
   <path class="fil0 str0" d="M27.84 52.615c-0.713,-0.699 -1.68,-1.171 -2.445,-1.828 -0.823,-0.708 -1.591,-1.516 -2.226,-2.397 -0.022,-0.03 -0.078,-0.008 -0.055,0.029 0.591,0.943 1.234,1.811 2.028,2.594 0.692,0.684 1.605,1.544 2.561,1.824 0.136,0.04 0.243,-0.119 0.137,-0.222z"/>
   <path class="fil0 str0" d="M26.85 51.128c-1.034,-1.046 -2.18,-1.943 -3.151,-3.062 -1.009,-1.159 -1.871,-2.436 -2.577,-3.798 -0.008,-0.019 -0.041,-0.007 -0.033,0.011 0.639,1.402 1.425,2.734 2.379,3.945 0.9,1.144 1.971,2.337 3.25,3.06 0.105,0.059 0.223,-0.064 0.132,-0.156z"/>
   <path class="fil0 str0" d="M26.068 49.319c-0.39,-0.558 -0.949,-1.014 -1.405,-1.522 -0.542,-0.6 -1.048,-1.229 -1.538,-1.873 -0.914,-1.203 -1.684,-2.491 -2.48,-3.772 -0.006,-0.007 -0.025,-0.004 -0.02,0.007 0.543,1.432 1.35,2.779 2.233,4.023 0.422,0.596 0.88,1.166 1.354,1.718 0.486,0.567 0.989,1.219 1.614,1.636 0.136,0.091 0.345,-0.068 0.242,-0.217z"/>
   <path class="fil0 str0" d="M25.253 46.355c-0.361,-0.53 -0.876,-0.983 -1.311,-1.458 -0.528,-0.578 -1.027,-1.181 -1.494,-1.811 -0.858,-1.155 -1.654,-2.377 -2.34,-3.643 -0.01,-0.018 -0.048,-0.011 -0.039,0.011 0.581,1.376 1.272,2.665 2.15,3.875 0.788,1.09 1.731,2.444 2.89,3.155 0.082,0.051 0.207,-0.037 0.144,-0.129z"/>
   <path class="fil0 str0" d="M24.371 43.271c-0.841,-1.046 -1.739,-2.028 -2.512,-3.132 -0.77,-1.097 -1.45,-2.26 -2.086,-3.441 -0.007,-0.011 -0.032,-0.004 -0.026,0.011 0.931,2.436 2.429,4.964 4.378,6.731 0.114,0.103 0.365,-0.018 0.246,-0.169z"/>
   <path class="fil0 str0" d="M23.656 40.12c-0.448,-0.898 -1.227,-1.674 -1.858,-2.447 -0.655,-0.802 -1.362,-1.564 -2.009,-2.37 -0.013,-0.015 -0.045,-0.004 -0.031,0.015 0.636,0.846 1.214,1.744 1.844,2.594 0.579,0.784 1.128,1.689 1.864,2.337 0.098,0.085 0.253,-0.004 0.19,-0.129z"/>
   <path class="fil0 str0" d="M23.699 37.625c-1.112,-1.549 -2.404,-2.973 -3.65,-4.413 -0.007,-0.011 -0.024,0 -0.016,0.011 1.133,1.524 2.244,3.088 3.51,4.509 0.069,0.077 0.224,-0.011 0.156,-0.107z"/>
   <path class="fil0 str0" d="M24.058 34.479c-0.858,-1.347 -2.119,-2.514 -3.181,-3.699 -0.008,-0.008 -0.025,0.004 -0.017,0.011 0.978,1.251 1.906,2.686 3.075,3.768 0.058,0.056 0.173,-0.003 0.123,-0.08z"/>
   <path class="fil0 str0" d="M25.129 31.604c-0.497,-0.6 -1.154,-1.085 -1.743,-1.589 -0.66,-0.567 -1.331,-1.116 -2.001,-1.668 -0.012,-0.011 -0.033,0.004 -0.019,0.015 0.615,0.603 1.227,1.211 1.853,1.803 0.564,0.534 1.118,1.134 1.765,1.568 0.078,0.051 0.216,-0.044 0.145,-0.129z"/>
   <path class="fil0 str0" d="M26.389 29.359c-0.765,-0.946 -1.759,-1.759 -2.624,-2.616 -0.003,-0.004 -0.008,0 -0.005,0.003 0.824,0.884 1.602,1.903 2.517,2.691 0.052,0.043 0.167,-0.008 0.112,-0.078z"/>
   <path class="fil0 str0" d="M27.992 26.014c-1.237,-0.994 -2.508,-1.943 -3.784,-2.889 -0.006,-0.004 -0.017,0.004 -0.009,0.011 1.236,0.99 2.474,1.976 3.748,2.918 0.031,0.022 0.079,-0.014 0.045,-0.04z"/>
   <path class="fil0 str0" d="M30.293 23.471c-1.196,-0.924 -2.602,-1.649 -3.887,-2.444 -0.015,-0.011 -0.029,0.011 -0.014,0.022 1.254,0.836 2.493,1.807 3.825,2.51 0.058,0.033 0.138,-0.04 0.076,-0.088z"/>
   <path class="fil0 str0" d="M32.992 20.729c-1.321,-0.806 -2.731,-1.446 -4.099,-2.171 -0.019,-0.011 -0.038,0.018 -0.017,0.029 1.348,0.754 2.649,1.59 4.043,2.26 0.084,0.04 0.159,-0.066 0.073,-0.118z"/>
   <path class="fil0 str0" d="M36.014 18.745c-1.394,-0.817 -2.917,-1.454 -4.389,-2.116 -0.032,-0.014 -0.062,0.026 -0.028,0.044 1.411,0.777 2.835,1.601 4.323,2.223 0.107,0.044 0.207,-0.084 0.094,-0.151z"/>
   <path class="fil0 str0" d="M39.908 16.994c-1.199,-0.858 -2.539,-1.553 -3.802,-2.312 -0.003,-0.003 -0.007,0.004 -0.003,0.004 1.227,0.817 2.431,1.73 3.718,2.444 0.1,0.059 0.181,-0.07 0.087,-0.136z"/>
   <path class="fil0 str0" d="M42.754 15.658c-1.149,-0.696 -2.456,-1.185 -3.68,-1.738 -0.015,-0.007 -0.031,0.015 -0.014,0.023 1.181,0.651 2.358,1.402 3.611,1.906 0.121,0.048 0.191,-0.125 0.083,-0.191z"/>
   <path class="fil0 str0" d="M45.587 14.881c-1.229,-0.828 -2.523,-1.56 -3.799,-2.311 -0.012,-0.008 -0.022,0.007 -0.01,0.015 1.215,0.846 2.423,1.715 3.69,2.487 0.131,0.081 0.25,-0.103 0.119,-0.191z"/>
   <path class="fil0 str0" d="M48.329 14.973c-0.519,-0.46 -1.195,-0.776 -1.79,-1.137 -0.672,-0.405 -1.352,-0.799 -2.03,-1.193 -0.012,-0.007 -0.022,0.008 -0.011,0.015 0.611,0.423 1.219,0.85 1.835,1.262 0.602,0.405 1.208,0.909 1.872,1.2 0.095,0.041 0.222,-0.059 0.124,-0.147z"/>
   <path class="fil0 str0" d="M51.261 14.69c-1.57,-0.876 -3.233,-1.649 -4.877,-2.374 -0.012,-0.008 -0.023,0.007 -0.01,0.015 1.53,0.927 3.11,1.843 4.722,2.624 0.187,0.088 0.36,-0.155 0.165,-0.265z"/>
   <path class="fil0 str0" d="M53.624 15.205c-0.702,-0.486 -1.512,-0.854 -2.269,-1.251 -0.77,-0.402 -1.535,-0.803 -2.324,-1.159 -0.025,-0.012 -0.045,0.014 -0.022,0.032 1.402,0.928 2.924,1.94 4.471,2.606 0.167,0.074 0.304,-0.118 0.144,-0.228z"/>
   <path class="fil0 str0" d="M56 15.488c-0.763,-0.496 -1.544,-0.934 -2.353,-1.35 -0.729,-0.376 -1.462,-0.803 -2.243,-1.053 -0.01,0 -0.019,0.011 -0.01,0.018 0.639,0.505 1.398,0.869 2.111,1.259 0.803,0.438 1.609,0.839 2.453,1.192 0.048,0.023 0.09,-0.033 0.042,-0.066z"/>
   <path class="fil0 str0" d="M57.375 16.07c-0.548,-0.567 -1.219,-1.031 -1.829,-1.527 -0.03,-0.023 -0.077,0.011 -0.046,0.04 0.558,0.545 1.095,1.155 1.715,1.63 0.106,0.081 0.267,-0.033 0.16,-0.143z"/>
   <path class="fil0 str0" d="M58.869 16.5c-0.32,-0.18 -0.648,-0.338 -0.977,-0.5 -0.036,-0.019 -0.068,0.026 -0.032,0.048 0.31,0.195 0.617,0.39 0.935,0.57 0.082,0.045 0.16,-0.07 0.074,-0.118z"/>
   <path class="fil0 str0" d="M27.064 27.53c-1.114,-0.946 -2.305,-1.77 -3.474,-2.639 -0.01,-0.007 -0.026,0.004 -0.015,0.015 1.08,0.953 2.122,1.939 3.264,2.826 0.149,0.118 0.388,-0.062 0.225,-0.202z"/>
   <path class="fil0 str0" d="M28.899 24.851c-1.205,-1.027 -2.568,-1.837 -3.838,-2.775 -0.014,-0.007 -0.035,0.008 -0.021,0.018 1.223,0.998 2.344,2.109 3.638,3.022 0.163,0.114 0.386,-0.121 0.221,-0.265z"/>
   <path class="fil0 str0" d="M31.592 21.929c-1.291,-0.788 -2.636,-1.513 -4.013,-2.139 -0.009,-0.003 -0.023,0.008 -0.012,0.015 1.22,0.891 2.509,1.701 3.829,2.436 0.219,0.122 0.42,-0.176 0.196,-0.312z"/>
   <path class="fil0 str0" d="M34.648 19.886c-0.599,-0.504 -1.338,-0.85 -2.028,-1.218 -0.69,-0.364 -1.377,-0.769 -2.117,-1.023 -0.022,-0.007 -0.043,0.022 -0.024,0.037 0.593,0.504 1.291,0.883 1.953,1.284 0.67,0.409 1.349,0.862 2.092,1.119 0.118,0.044 0.226,-0.114 0.124,-0.199z"/>
   <path class="fil0 str0" d="M37.477 17.921c-1.297,-0.817 -2.697,-1.63 -4.117,-2.212 -0.021,-0.011 -0.055,0.015 -0.03,0.033 1.215,0.939 2.624,1.733 3.982,2.44 0.187,0.1 0.352,-0.143 0.165,-0.261z"/>
   <path class="fil0 str0" d="M41.936 16.353c-0.586,-0.493 -1.321,-0.81 -1.994,-1.166 -0.752,-0.398 -1.502,-0.77 -2.281,-1.108 -0.024,-0.011 -0.044,0.018 -0.021,0.033 0.69,0.489 1.391,0.935 2.117,1.369 0.656,0.394 1.309,0.854 2.035,1.104 0.136,0.048 0.263,-0.133 0.144,-0.232z"/>
   <path class="fil0 str0" d="M43.817 15.503c-0.902,-0.846 -2.088,-1.686 -3.183,-2.256 -0.017,-0.007 -0.035,0.011 -0.021,0.026 0.838,0.909 1.954,1.818 3.008,2.462 0.151,0.092 0.336,-0.099 0.196,-0.232z"/>
   <path class="fil0 str0" d="M25.662 30.084c-0.969,-1.049 -2.212,-1.917 -3.359,-2.767 -0.016,-0.011 -0.041,0.003 -0.025,0.022 0.982,1.045 1.999,2.164 3.163,3.007 0.169,0.125 0.361,-0.107 0.221,-0.262z"/>
   <path class="fil0 str0" d="M24.536 32.896c-0.455,-0.589 -1.105,-1.053 -1.663,-1.542 -0.632,-0.556 -1.279,-1.089 -1.948,-1.597 -0.017,-0.015 -0.041,0.003 -0.024,0.022 0.571,0.607 1.163,1.185 1.776,1.751 0.547,0.505 1.076,1.104 1.709,1.498 0.083,0.052 0.221,-0.04 0.15,-0.132z"/>
   <path class="fil0 str0" d="M24.036 35.744c-1.026,-1.107 -2.129,-2.163 -3.288,-3.128 -0.01,-0.011 -0.033,0 -0.022,0.015 0.928,1.185 1.95,2.315 3.025,3.367 0.177,0.173 0.466,-0.058 0.285,-0.254z"/>
   <path class="fil0 str0" d="M58.645 32.487c-0.559,-4.361 -4.73,-7.618 -8.998,-7.783 -4.586,-0.181 -8.851,2.778 -10.659,6.922 -0.56,1.281 -0.9,2.624 -1.022,4.016 -0.114,1.299 -0.189,3.039 0.599,4.154 0.091,0.133 0.315,0.133 0.368,-0.033 0.109,-0.338 0.16,-0.695 0.185,-1.06 0.003,-0.014 0.004,-0.029 0.003,-0.044 0.044,-0.695 -0.006,-1.42 0.054,-2.087 0.099,-1.104 0.334,-2.208 0.685,-3.26 0.164,-0.49 0.359,-0.968 0.586,-1.428 0.835,-1.498 2.022,-2.801 3.507,-3.747 2.585,-1.645 5.88,-2.182 8.806,-1.303 0.412,0.195 0.814,0.427 1.199,0.696 1.753,1.233 2.848,3.014 3.275,5.097 0.145,0.707 1.512,0.641 1.412,-0.14z"/>
   <path class="fil0 str0" d="M57.459 36.613c-2.945,0.306 -5.883,0.707 -8.822,1.064 -1.448,0.176 -2.895,0.353 -4.343,0.533 -1.482,0.181 -2.98,0.317 -4.424,0.7 -0.035,0.011 -0.024,0.055 0.01,0.055 1.43,0.029 2.855,-0.173 4.275,-0.339 1.494,-0.177 2.988,-0.349 4.482,-0.526 2.985,-0.35 5.979,-0.662 8.957,-1.068 0.309,-0.04 0.139,-0.449 -0.135,-0.419z"/>
   <path class="fil0 str0" d="M58.531 36.904c-0.016,-0.059 -0.136,-0.056 -0.127,0.015 0.621,4.843 -0.625,10.249 -4.974,13.03 -3.802,2.431 -9.063,2.214 -11.909,-1.563 -1.447,-1.921 -2.073,-4.412 -1.378,-6.749 0.09,-0.299 -0.426,-0.438 -0.516,-0.14 -1.311,4.401 1.806,9.187 6.161,10.263 4.862,1.201 9.891,-1.708 11.945,-6.119 1.269,-2.723 1.566,-5.834 0.798,-8.737z"/>
   <path class="fil0 str0" d="M54.378 48.879c-0.107,-1.089 -0.232,-2.179 -0.344,-3.253 -0.248,-2.37 -0.547,-4.733 -0.907,-7.088 1.289,-0.162 2.612,-0.261 3.904,-0.464 1.138,3.761 0.252,8.134 -2.653,10.805zm-6.631 2.43c-0.023,-0.256 -0.046,-0.511 -0.066,-0.764 -0.1,-1.263 -0.21,-2.523 -0.329,-3.786 -0.235,-2.473 -0.508,-4.942 -0.819,-7.408 0.629,-0.077 1.257,-0.154 1.886,-0.232l3.278 -0.405c0.327,2.286 0.612,4.579 0.839,6.879 0.145,1.468 0.225,2.94 0.319,4.413 -1.569,0.924 -3.362,1.373 -5.108,1.303zm10.66 -13.794c0.116,-0.39 -0.167,-0.913 -0.686,-0.884 -1.542,0.081 -3.091,0.376 -4.62,0.578 -0.058,0.007 -0.117,0.019 -0.175,0.026 -0.357,-2.238 -0.749,-4.479 -1.246,-6.687 -0.561,-2.488 -1.097,-5.035 -2.104,-7.387 -0.09,-0.213 -0.517,-0.249 -0.492,0.048 0.211,2.485 0.821,4.932 1.258,7.387 0.406,2.271 0.815,4.541 1.163,6.827 -1.075,0.143 -2.15,0.283 -3.225,0.427 -0.637,0.084 -1.273,0.173 -1.909,0.261 -0.297,-2.23 -0.634,-4.453 -1.001,-6.672 -0.422,-2.547 -0.877,-5.12 -1.717,-7.56 -0.089,-0.257 -0.561,-0.261 -0.548,0.055 0.105,2.588 0.557,5.164 0.94,7.725 0.33,2.212 0.627,4.432 0.906,6.65 -0.451,0.063 -0.902,0.126 -1.351,0.192 -0.777,0.11 -1.553,0.239 -2.325,0.375 -0.627,0.111 -1.485,0.129 -1.963,0.593 -0.101,0.099 -0.075,0.269 0.054,0.331 0.596,0.298 1.313,0.144 1.955,0.096 0.751,-0.059 1.504,-0.133 2.253,-0.21 0.509,-0.055 1.018,-0.11 1.527,-0.169 0.303,2.484 0.568,4.972 0.794,7.463 0.114,1.263 0.218,2.523 0.313,3.785 0.009,0.116 0.016,0.232 0.023,0.348 -1.676,-0.375 -3.229,-1.27 -4.395,-2.734 -0.706,-0.891 -1.248,-1.895 -1.597,-2.974 -0.383,-1.185 -0.403,-2.315 -0.485,-3.533 -0.016,-0.246 -0.43,-0.412 -0.555,-0.151 -0.999,2.072 -0.242,4.755 0.916,6.591 1.272,2.023 3.338,3.53 5.665,4.083 0.179,0.042 0.359,0.079 0.539,0.111 0.05,0.741 0.116,1.481 0.247,2.209 0.129,0.711 1.282,0.565 1.323,-0.13 0.038,-0.636 0.016,-1.28 -0.029,-1.923 1.785,0.043 3.535,-0.388 5.096,-1.193 0.044,0.591 0.094,1.182 0.157,1.771 0.092,0.86 1.514,0.968 1.516,0.032 0.001,-0.923 -0.043,-1.852 -0.111,-2.782 1.49,-1.118 2.704,-2.619 3.457,-4.386 1.15,-2.697 1.282,-5.792 0.432,-8.589z"/>
   <path class="fil0 str0" d="M72.94 75.208c-0.003,-0.689 0.111,-1.549 -0.233,-2.167 -0.035,-0.061 -0.126,-0.058 -0.164,-0.005 -0.408,0.56 -0.369,1.48 -0.438,2.154 -0.08,0.781 -0.309,1.716 -0.085,2.477 0.111,0.378 0.643,0.352 0.779,0.02 0.297,-0.723 0.146,-1.706 0.141,-2.479z"/>
   <path class="fil0 str0" d="M84.297 79.557c-1.265,-1.69 -3.185,-3.078 -4.877,-4.313 -1.316,-0.962 -2.783,-1.995 -4.348,-2.598 0.096,-0.139 0.088,-0.34 -0.115,-0.44 -3.252,-1.618 -7.074,-2.41 -10.637,-2.996 -3.649,-0.6 -7.352,-0.855 -11.047,-0.749 -7.344,0.212 -14.641,1.815 -21.38,4.748 -3.802,1.655 -7.387,3.797 -10.692,6.297 -0.248,0.188 0.129,0.496 0.357,0.331 11.791,-8.543 27.033,-12.236 41.432,-10.084 1.976,0.295 3.937,0.699 5.868,1.211 1.818,0.48 3.577,1.135 5.375,1.672 1.415,1.236 3.124,2.18 4.619,3.313 0.79,0.599 1.557,1.228 2.3,1.885 0.812,0.72 1.558,1.554 2.409,2.224 0.348,0.275 1.091,-0.027 0.736,-0.501z"/>
   <path class="fil0 str0" d="M84.888 81.277c-14.371,-3.787 -29.917,-3.435 -44.038,1.26 -3.904,1.299 -7.68,2.894 -11.288,4.873 -0.423,-0.693 -1.193,-1.232 -1.785,-1.779 -0.734,-0.679 -1.483,-1.338 -2.235,-1.996 -1.469,-1.29 -2.991,-2.514 -4.538,-3.708 -0.024,-0.018 -0.058,0.007 -0.035,0.032 1.26,1.463 2.55,2.897 3.902,4.277 0.658,0.67 1.313,1.342 1.988,1.994 0.649,0.628 1.278,1.439 2.086,1.853 0.406,0.207 0.918,-0.151 0.665,-0.599 -0.001,-0.003 -0.004,-0.005 -0.006,-0.008 13.341,-6.132 28.037,-8.98 42.696,-7.522 4.166,0.414 8.29,1.181 12.332,2.273 0.669,0.181 0.928,-0.772 0.256,-0.95z"/>
  </g>
 </g>
</svg>
