<?xml version="1.0" encoding="UTF-8"?>
<!DOCTYPE svg PUBLIC "-//W3C//DTD SVG 1.1//EN" "http://www.w3.org/Graphics/SVG/1.1/DTD/svg11.dtd">
<!-- Creator: CorelDRAW -->
<svg xmlns="http://www.w3.org/2000/svg" xml:space="preserve" width="960px" height="960px" version="1.1" style="shape-rendering:geometricPrecision; text-rendering:geometricPrecision; image-rendering:optimizeQuality; fill-rule:evenodd; clip-rule:evenodd"
viewBox="0 0 960 960"
 xmlns:xlink="http://www.w3.org/1999/xlink"
 xmlns:xodm="http://www.corel.com/coreldraw/odm/2003">
 <defs>
  <style type="text/css">
   <![CDATA[
    .fil0 {fill:black}
   ]]>
  </style>
 </defs>
 <g id="Layer_x0020_1">
  <metadata id="CorelCorpID_0Corel-Layer"/>
  <g id="_2591230749600">
   <path class="fil0" d="M351.15 71.173c-1.778,0 -3.567,0 -5.346,0 -11.922,-12.477 17.178,-12.867 5.346,0z"/>
   <path class="fil0" d="M696.989 106.513c-6.627,0.824 -10.231,-5.733 -14.986,-8.572 -16.904,-10.028 -36.715,-14.679 -57.823,-21.4 -0.378,-4.307 0.013,-7.841 3.213,-8.582 12.903,-0.377 30.856,6.37 44.97,12.867 11.993,5.496 32.358,12.55 24.626,25.687z"/>
   <path class="fil0" d="M322.25 79.742c-2.413,9.066 -11.736,7.851 -18.209,10.714 -20.979,9.277 -41.494,26.168 -61.024,41.754 -20.001,15.96 -40.79,30.065 -54.608,47.109 -3.319,4.108 -4.684,13.207 -11.772,11.783 -9.546,-5.626 0.611,-16.127 4.285,-20.342 24.365,-28.016 55.972,-51.393 88.863,-73.89 10.734,-7.345 32.938,-21.423 42.825,-21.4 4.801,0.011 7.357,-0.036 9.64,4.272z"/>
   <path class="fil0" d="M138.084 165.405c-3.294,-7.511 5.886,-14.786 11.785,-20.341 14.559,-13.785 40.386,-38.825 58.882,-44.968 3.19,-1.071 7.331,3.177 7.498,5.346 0.434,5.909 -16.705,12.346 -20.342,14.996 -13.761,10.007 -25.473,21.919 -37.469,33.195 -5.262,4.908 -11.018,14.751 -20.354,11.772z"/>
   <path class="fil0" d="M521.392 693.255c4.144,-0.211 7.885,-0.034 10.711,1.06 3.413,-5.499 6.026,-11.795 8.569,-18.199 -15.49,-3.343 -15.62,8.663 -19.28,17.139zm-68.522 -1.058c6.99,-0.331 9.249,1.248 14.982,0 1.285,-5.863 5.146,-9.147 6.441,-14.999 -4.248,-0.401 -7.792,-1.505 -10.725,-3.214 -3,6.617 -7.331,11.936 -10.698,18.213zm-8.573 -23.568c2.203,1.731 2.487,5.368 2.143,9.64 6.356,-7.558 17.682,-15.867 12.857,-31.04 -4.145,7.979 -10.912,13.338 -15,21.4zm47.123 -24.626c0,5.355 0,10.711 0,16.067 6.147,-0.281 13.645,0.791 18.199,-1.072 0.788,-7.06 4.085,-11.618 7.488,-16.066 -9.089,-0.164 -17.942,-0.107 -25.687,1.071zm-141.328 -2.142c-2.392,7.264 -6.924,12.359 -9.653,19.27 28.757,3.72 58.291,6.673 92.09,5.355 2.729,-7.968 9.156,-12.243 12.853,-19.257 -32.407,1.259 -71.018,5.636 -95.29,-5.368zm205.565 -12.844c0,6.427 0,12.844 0,19.27 20.779,-6.357 38.588,-21.376 40.683,-42.824 -11.172,10.24 -22.754,20.07 -40.683,23.554zm-134.901 -73.877c0,17.598 -0.13,35.584 1.058,49.238 6.193,1.662 13.361,2.342 21.412,2.145 2.403,-43.779 -6.133,-76.656 -7.484,-116.705 -17.989,9.113 -14.986,35.491 -14.986,65.322zm-73.891 -127.427c3.578,6.46 12.7,17.925 20.342,25.707 15.563,15.856 30.759,29.901 48.194,39.611 4.578,-2.082 10.05,-8.145 9.627,-11.772 -42.906,-10.428 -82.871,-62.496 -62.096,-111.347 -18.032,15.41 -28.873,34.633 -16.067,57.801zm225.921 -42.815c7.311,-1.635 11.041,-12.513 10.711,-18.199 -6.52,3.107 -8.169,11.101 -10.711,18.199zm-34.256 -7.498c8.265,1.719 12.633,7.358 22.483,7.498 0.377,-6.757 5.262,-9.006 4.285,-17.138 -8.603,-3.167 -17.161,-6.38 -26.768,-8.559 0,6.063 0,12.126 0,18.199zm-120.987 -81.378c0,4.638 0,9.276 0,13.928 4.978,0.353 8.439,-0.838 11.772,-2.143 -0.707,-6.794 1.412,-16.41 -1.071,-21.412 -2.449,4.341 -7.725,5.836 -10.701,9.627zm50.309 9.653c3.641,-0.307 8.689,0.824 10.715,-1.081 -0.708,-7.501 1.411,-17.849 -1.071,-23.558 -4.639,7.087 -16.151,12.69 -9.644,24.639zm23.568 -29.995c-3.19,12.527 2.226,33.646 -6.426,40.696 -6.758,1.271 -19.084,2.072 -25.697,0 -6.687,-10.1 -3.284,-30.255 -10.712,-39.625 -1.084,1.779 -4.544,1.168 -6.416,2.156 -3.074,9.406 0.871,25.86 -2.142,35.313 -34.797,12.067 -65.239,37.964 -70.665,76.024 -6.556,45.838 30.639,70.287 58.882,81.375 11.098,4.368 16.761,2.533 19.28,10.711 3.25,10.594 1.095,28.443 2.132,41.754 2.376,30.702 11.746,62.532 1.072,93.161 -32.091,1.648 -63.617,-6.26 -98.507,-5.356 -2.249,4.154 -0.53,12.303 -1.071,18.189 18.636,8.052 50.476,9.3 79.237,7.508 15.055,-0.941 31.108,-8.592 39.611,1.071 4.932,6.487 -5.606,28.44 7.498,26.772 5.426,-5.286 -0.391,-21.813 3.213,-28.914 9.981,-5.342 36.021,-8.205 47.11,-2.152 2.225,8.132 0.54,20.164 1.071,29.981 5.355,0 10.701,0 16.056,0 -1.238,-12.537 -2.896,-34.126 1.071,-44.967 26.205,-3.837 54.421,-25.44 57.821,-49.252 4.144,-29.017 -13.264,-43.248 -25.697,-57.81 -6.25,-7.335 -11.405,-15.857 -17.128,-21.426 -9.51,-9.24 -32.958,-20.011 -35.337,-31.043 -1.024,-4.755 0.834,-9.91 1.071,-14.995 0.741,-15.903 0,-34.526 0,-52.455 0,-16.784 -3.614,-35.868 5.356,-47.12 15.032,3.885 29.287,8.546 42.825,13.925 2.025,-9.063 13.477,-15.126 11.782,-24.626 -0.764,-4.261 -14.008,-13.491 -20.351,-16.07 -16.304,-6.604 -42.118,-8.252 -54.597,-12.83 -4.024,-7.414 -1.389,-21.459 -2.143,-32.137 -6.934,-0.153 -13.807,-0.234 -18.199,2.142zm27.83 -11.769c3.814,7.251 1.541,20.588 2.142,31.053 31.019,8.238 63.249,15.266 81.375,36.398 -1.341,16.02 -3.707,39.765 -11.782,53.536 -4.238,7.228 -19.247,17.138 -25.687,17.128 -9.594,-0.014 -15.76,-11.502 -26.768,-12.853 -0.624,14.348 0.79,35.443 0,52.475 -0.234,4.861 -2.306,10.677 -1.071,14.985 2.635,9.207 22.096,17.081 31.042,25.697 6.04,5.793 11.936,14.986 18.209,22.487 14.575,17.408 30.115,29.05 28.901,61.024 -1.696,44.767 -17.105,85.813 -59.954,94.229 3.368,19.707 -10.417,29.808 -16.066,43.896 -9.36,1.732 -26.698,2.542 -33.185,-2.143 -2.379,-8.709 -0.461,-19.75 0,-28.91 -2.896,-2.459 -10.324,-0.377 -14.986,-1.071 -8.792,5.099 -7.534,23.802 -17.127,29.981 -9.207,5.923 -32.018,3.591 -38.551,-4.284 0,-6.063 0,-12.136 0,-18.209 -33.278,-0.991 -65.839,-2.673 -96.364,-6.417 -3.13,-3.647 -7.662,-5.896 -10.711,-9.63 -6.274,-15.82 -0.471,-26.521 5.355,-40.693 3.19,-7.758 5.803,-15.326 9.63,-21.412 23.024,-0.541 44.614,0.377 65.322,2.129 0.01,-30.192 0.327,-65.836 1.071,-98.49 -17.575,-12.774 -34.623,-26.301 -51.397,-43.909 -8.462,-8.877 -18.176,-20.555 -22.484,-28.901 -7.945,-15.409 -10.641,-30.265 -1.071,-47.109 15.87,-27.923 50.49,-47.84 70.664,-71.749 0.825,-8.452 -1.528,-16.29 1.071,-22.47 2.58,-6.133 16.458,-16.2 24.63,-20.341 7.381,-3.767 16.113,-4.591 23.554,-4.298 3.39,3.404 6.697,6.887 7.498,12.867 8.569,-10.017 34.349,-22.25 56.74,-14.996z"/>
   <path class="fil0" d="M88.832 287.466c0.814,8.178 -7.074,10.698 -10.701,16.057 -26.074,38.503 -40.069,92.593 -47.12,152.039 -0.694,5.97 0.164,17.388 -8.559,19.27 -7.381,-5.789 -4.261,-17.421 -3.213,-25.697 5.295,-42.107 15.643,-85.579 32.124,-118.844 8.712,-17.599 15.809,-34.703 27.839,-43.896 2.025,-1.555 7.394,-4.745 9.63,1.071z"/>
   <path class="fil0" d="M619.895 329.22c-1.258,1.588 -4.038,1.672 -5.342,3.223 -6.794,-2.519 -8.923,-9.663 -10.715,-17.138 7.511,-10.171 16.01,3.791 16.057,13.915z"/>
   <path class="fil0" d="M341.52 343.144c-0.551,5.509 -6.991,5.132 -9.64,8.559 -10.748,15.079 -14.642,43.519 -14.986,66.38 -0.093,6.073 2.533,21.072 -6.427,19.28 -6.063,-1.211 -5.295,-26.531 -4.284,-40.683 1.378,-19.316 17.411,-76.49 35.337,-53.536z"/>
   <path class="fil0" d="M27.808 342.073c0.19,4.732 -3.13,6.287 -4.285,9.63 -3.65,10.641 -2.132,34.703 -10.711,35.337 -10.09,0.731 -3.827,-37.422 2.142,-44.967 2.873,-3.65 9.804,-7.168 12.854,0z"/>
   <path class="fil0" d="M905.768 558.353c-7.615,-14.231 3.437,-21.729 6.43,-33.195 8.275,-31.726 5.495,-79.696 1.071,-117.776 -1.108,-9.524 -2.957,-23.145 -6.43,-34.266 -3.861,-12.397 -12.477,-24.663 -6.413,-31.043 0.777,-1.001 1.941,-1.625 3.213,-2.156 0.904,-0.2 1.011,0.438 1.071,1.072 5.896,6.006 9.44,17.174 12.843,27.852 8.77,27.499 13.515,74.445 11.769,109.205 -1.318,26.664 -6.59,49.148 -13.911,67.464 -1.955,4.861 -1.448,14.221 -9.643,12.843z"/>
   <path class="fil0" d="M489.278 377.4c-1.932,4.144 -6.78,5.356 -8.569,9.64 1.305,18.036 -2.696,42.919 8.569,49.242 0.941,-17.305 3.013,-44.734 0,-58.882zm-7.511 -7.488c0.023,-2.142 2.933,-1.378 2.155,-4.284 -1.434,0 -2.849,0 -4.284,0 -0.307,2.436 0.257,4.014 2.129,4.284zm20.355 -13.924c0.507,28.746 0.917,66.543 -3.214,94.232 -12.903,-1.392 -22.026,-6.534 -33.185,-9.643 -0.54,-25.885 -4.061,-54.478 -3.213,-78.163 5.369,-9.206 29.641,-11.972 39.612,-6.426z"/>
   <path class="fil0" d="M297.624 359.201c3.227,7.204 -3.26,16.351 -5.356,23.555 -2.002,6.817 -0.307,14.445 -7.498,13.924 -11.805,-0.87 1.459,-31.676 5.356,-38.55 2.837,0.01 6.123,-0.4 7.498,1.071z"/>
   <path class="fil0" d="M428.244 427.713c-2.826,-13.574 1.695,-34.516 -3.216,-46.028 -13.888,5.616 -16.738,45.004 3.216,46.028zm7.498 -67.441c2.646,24.015 4.094,59.776 3.213,80.305 -29.808,4.498 -44.873,-28.38 -33.198,-54.608 5.062,-11.348 19.848,-14.539 21.413,-24.626 1.401,-2.956 5.792,-2.142 8.572,-1.071z"/>
   <path class="fil0" d="M949.677 454.481c2.296,9.817 6.344,37.949 -3.213,42.835 -11.148,-3.424 -7.098,-34.49 -3.214,-42.835 2.143,0 4.285,0 6.427,0z"/>
   <path class="fil0" d="M482.851 599.036c3.824,-1.155 8.322,-1.672 11.773,-3.214 -2.319,-18.376 -4.558,-36.845 -4.285,-57.81 -2.286,-1.989 -7.841,-0.731 -11.772,-1.072 1.001,21.119 1.919,42.332 4.284,62.096zm21.4 -6.427c4.027,-0.978 7.581,-2.426 11.785,-3.214 -3.237,-20.307 -1.742,-45.357 -6.417,-64.237 -13.994,14.172 -4.024,43.99 -5.368,67.451zm-26.755 -67.451c7.307,-0.52 12.793,0.764 18.199,2.142 2.92,-7.077 8.322,-11.665 10.711,-19.27 -9.961,-3.25 -21.603,-4.815 -32.113,-7.501 0.693,8.573 1.471,17.081 3.203,24.629zm42.825 -21.415c3.096,29.807 5.425,65.852 7.498,93.151 -16.057,5.155 -33.586,13.984 -52.466,12.853 -7.511,-16.811 -6.416,-39.565 -7.501,-62.105 -1.034,-21.72 -7.284,-45.745 -5.342,-62.095 -0.047,-1.839 0.788,-2.78 2.142,-3.217 8.393,0.177 13.361,3.744 17.115,8.559 14.762,2.389 29.477,4.802 38.554,12.854z"/>
   <path class="fil0" d="M548.16 584.05c6.016,-0.777 9.993,-3.591 12.853,-7.511 2.086,-21.352 -4.294,-34.243 -16.067,-41.741 -0.67,18.153 0.507,34.456 3.214,49.252zm-5.356 14.986c-12.56,-17.092 -8.452,-56.469 -7.488,-83.521 0.778,-0.988 1.942,-1.612 3.214,-2.129 0.293,0.103 0.777,-0.153 1.061,0 12.57,6.073 45.661,40.175 31.052,69.593 -4.224,8.522 -15.302,11.996 -27.839,16.057z"/>
   <path class="fil0" d="M634.894 593.69c-6.804,-6.981 -2.192,-19.447 -3.213,-29.981 -1.709,-17.635 -8.252,-32.244 -19.284,-40.696 2.696,-9.734 11.902,-4.849 16.067,-1.058 7.204,6.557 13.737,27.732 14.985,44.967 0.745,10.017 2.814,26.027 -8.555,26.768z"/>
   <path class="fil0" d="M657.377 540.154c3.331,9.924 12.183,41.637 -5.355,38.54 -0.801,-10.441 -5.015,-28.533 -2.142,-38.54 4.271,-0.601 3.223,-0.601 7.497,0z"/>
   <path class="fil0" d="M262.287 684.686c-0.564,-15.163 26.334,-9.818 25.697,-1.072 -0.611,8.499 -19.434,4.815 -25.697,1.072z"/>
   <path class="fil0" d="M98.472 742.506c19.093,29.618 46.358,55.115 69.596,82.45 6.837,8.038 20.445,15.763 18.199,27.852 -12.88,0.117 -20.978,-13.327 -28.914,-22.497 -16.643,-19.27 -30.815,-35.737 -49.251,-56.749 -10.558,-12.056 -24.863,-22.213 -20.341,-41.767 6.51,-5.569 13.077,1.001 10.711,10.711z"/>
   <path class="fil0" d="M809.407 754.292c-2.906,8.899 -11.479,13.818 -17.128,20.341 -32.02,36.962 -68.439,80.518 -115.631,104.943 -1.909,0.978 -22.581,12.243 -24.626,3.2 -1.545,-6.813 9.947,-8.956 13.911,-10.711 23.531,-10.357 47.793,-31.723 70.667,-54.607 21.753,-21.743 41.671,-46.285 59.963,-64.237 1.625,-1.592 9.971,-5.216 12.844,1.071z"/>
   <path class="fil0" d="M775.151 815.326c-8.733,22.99 -26.451,37.235 -44.967,51.384 -5.639,4.307 -10.278,11.829 -18.209,12.866 -7.018,-16.233 15.573,-23.274 25.697,-32.137 12.089,-10.571 20.094,-23.201 27.839,-35.337 1.528,0.104 3.036,0.177 3.213,-1.061 3.614,-0.047 4.648,2.483 6.427,4.285z"/>
   <path class="fil0" d="M98.472 827.098c-1.435,-11.572 12.313,-10.254 13.915,-4.285 2.002,7.415 -9.757,11.913 -13.915,4.285z"/>
   <path class="fil0" d="M771.938 857.079c0.176,-1.248 -0.237,-1.905 -1.072,-2.152 -0.21,-8.969 18.093,-26.311 21.413,-14.986 1.612,5.52 -9.864,20.989 -20.341,17.138z"/>
   <path class="fil0" d="M429.315 875.278c-0.107,-5.095 4.919,-5.085 5.356,-9.63 -4.885,1.299 -4.205,-2.939 -8.572,-2.152 -3.778,5.579 -5.473,10.171 3.216,11.782zm76.02 -2.152c2.976,-4.144 7.958,-6.3 12.853,-8.549 -0.824,-3.861 -7.11,-7.838 -8.569,-7.498 5.403,7.241 -7.251,11.266 -4.284,16.047zm-54.607 -6.416c3.483,-0.611 4.978,0.73 7.497,1.084 2.46,-3.274 5.203,-6.23 7.498,-9.653 -3.65,-1.342 -4.061,-5.934 -8.569,-6.417 -0.517,6.603 -3.78,10.501 -6.426,14.986zm-54.611 7.497c6.38,-7.898 20.859,-7.698 22.497,-20.341 -7.474,-2.73 -33.822,10.935 -22.497,20.341zm-43.896 -27.839c0.247,3.684 3.19,4.675 6.427,5.356 -0.801,-3.297 2.943,-2.059 2.142,-5.356 -3.917,0.788 -5.943,-2.636 -8.569,0zm14.986 12.854c5.496,-1.705 12.866,-1.389 17.138,1.071 1.745,-3.614 6.133,-4.578 6.43,-9.64 -5.546,-2.32 -7.842,-7.862 -11.786,-11.773 -0.951,9.737 -8.299,13.104 -11.782,20.342zm221.649 -10.712c6.32,-0.517 0.01,-7.064 4.271,-9.63 -2.119,-0.023 -1.355,-2.929 -4.271,-2.152 -2.179,3.967 0.727,6.38 0,11.782zm-266.606 -10.701c2.686,4.085 4.558,8.996 7.488,12.844 5.932,-4.075 13.3,-6.688 14.995,-14.996 -1.788,-5.356 -4.448,-9.817 -5.355,-16.057 -10.972,0.801 -12.22,11.335 -17.128,18.209zm-28.911 -3.213c8.583,0.941 22.791,-1.378 23.555,-11.783 -5.839,0.131 -7.675,-3.743 -10.711,-6.426 -4.098,6.263 -10.278,10.427 -12.844,18.209zm-13.924 -33.195c-2.426,5.062 -6.604,8.382 -8.559,13.925 8.522,-1.048 12.82,2.165 17.128,5.345 5.015,-7.828 13.407,-12.289 16.057,-22.483 -7.935,1.775 -16.364,7.968 -24.626,3.213zm-33.185 0c5.249,1.872 10.841,3.424 10.701,10.701 6.51,-4.191 9.11,-12.313 13.925,-18.199 -3.26,-2.803 -3.45,-8.689 -3.214,-14.985 -12.112,2.529 -14.091,15.162 -21.412,22.483zm-22.497 -13.915c3.334,2.39 3.521,7.912 3.217,13.915 10.287,-2.202 13.077,-11.902 18.209,-19.283 -4.555,-1.872 -8.182,-4.649 -12.853,-6.414 -1.556,5.216 -6.711,6.837 -8.573,11.782zm-22.483 -14.985c0.684,3.603 -1.365,9.937 1.084,11.772 16.774,-5.709 29.251,-15.703 27.839,-39.625 -16.891,2.026 -17.621,20.215 -28.923,27.853zm-7.485 -55.678c-8.149,12.689 -20.401,20.965 -14.999,38.527 6.147,1.718 12.667,3.049 17.141,6.439 4.118,-5.886 9.04,-10.948 12.844,-17.141 -3.58,-1.411 -6.664,-3.317 -8.572,-6.427 -4.015,4.559 -5.813,11.312 -12.841,12.857 -2.896,-1.047 -5.169,-2.686 -5.345,-6.43 5.192,-11.569 16.691,-16.844 19.257,-31.039 -5.249,-1.318 -6.144,1.105 -7.485,3.214zm-42.825 9.629c8.476,-0.991 11.018,3.955 18.199,4.285 5.343,-5.359 9.627,-11.786 12.854,-19.284 -5.933,-0.493 -6.11,-6.743 -9.64,-9.63 -5.923,9.43 -18.259,12.433 -21.413,24.629zm-7.501 -27.842c2.616,2.733 6.407,4.298 8.559,7.488 7.227,-7.041 14.986,-13.574 21.412,-21.412 -7.414,0.66 -11.265,-2.273 -14.972,-5.356 -4.802,6.627 -12.159,10.701 -14.999,19.28zm-8.569 -32.124c2.109,11.726 -4.979,17.599 -3.2,25.711 11.712,-13.631 26.851,-23.829 28.897,-47.123 -13.831,-5.272 -17.598,14.231 -25.697,21.412zm-18.199 -13.924c6.146,-1.131 8.135,1.872 12.844,2.152 3.897,-6.814 9.43,-11.996 13.924,-18.199 -3.153,-1.835 -3.07,-6.934 -5.355,-9.64 -7.345,8.369 -15.774,15.633 -21.413,25.687zm12.844 -57.811c-9.781,5.026 -13.738,20.999 -25.697,20.341 5.379,4.615 11.795,8.193 17.137,12.854 7.348,-9.076 18.246,-14.585 24.63,-24.639 -5.76,-2.446 -11.539,-4.872 -16.07,-8.556zm-25.697 -13.928c5.532,2.333 6.58,9.137 8.569,14.999 7.227,-9.192 18.976,-13.854 20.341,-28.9 -13.291,-12.336 -21.67,5.025 -28.91,13.901zm-2.133 -35.313c2.967,14.398 -8.555,19.977 -7.498,28.9 4.675,-8.182 12.984,-12.714 17.128,-21.413 -4.414,-3.366 -1.588,-11.031 -2.142,-13.928 -1.742,2.897 -4.191,5.099 -7.488,6.441zm-14.995 -12.867c4.05,0.247 5.202,3.38 8.568,4.297 5.547,-4.461 9.877,-10.123 16.057,-13.927 -1.378,-4.331 -4.955,-6.46 -7.497,-9.627 -5.026,7.097 -12.727,11.535 -17.128,19.257zm2.142 -35.327c3.731,1.625 2.202,8.499 4.284,11.772 6.193,-12.006 20.672,-15.713 22.484,-32.114 -11.252,-6.85 -19.374,13.067 -26.768,20.342zm5.355 -23.542c4.629,-4.568 9.901,-9.83 5.356,-18.212 -3.624,3.544 -9.323,10.631 -5.356,18.212zm1.071 -64.25c-1.401,6.44 5.122,14.338 2.143,21.412 -2.506,5.957 -8.486,5.603 -13.915,10.712 0.838,4.157 2.993,6.994 5.346,9.629 5.499,-5.555 9.793,-12.322 16.07,-17.128 -5.182,-14.371 2.99,-31.265 17.125,-33.208 -1.141,-5.979 -5.379,-8.885 -8.569,-12.83 -0.434,12.737 -15.797,10.338 -18.2,21.413zm13.915 -38.541c2.002,3.344 3.26,7.441 5.356,10.702 1.448,-10.702 13.691,-10.585 19.27,-17.138 0.801,-7.218 -2.082,-10.762 -5.342,-13.905 -3.758,9.453 -14.753,11.656 -19.284,20.341zm20.342 -39.621c4.601,-2.189 9.122,-4.451 14.985,-5.356 1.165,-2.766 2.613,-5.252 2.156,-9.63 -6.464,-0.317 -18.72,7.181 -17.141,14.986zm306.227 -225.92c-4.074,17.738 -28.323,25.413 -41.754,10.711 -4.027,13.668 -19.377,25.073 -36.411,16.057 -1.282,14.865 -18.576,21.893 -33.195,13.925 -4.154,20.741 -17.352,33.562 -40.683,22.483 -1.765,14.302 -5.849,26.274 -24.626,23.555 3.074,20.108 -8.418,30.478 -24.625,27.829 -0.224,19.4 -7.959,31.313 -31.043,27.839 -0.213,17.645 -4.792,30.926 -23.568,29.981 0.721,14.646 0.06,27.913 -12.84,28.924 3.353,17.445 -0.874,35.14 -13.928,39.602 7.511,15.913 -0.47,35.947 -12.843,41.763 12.419,10.348 3.687,30.442 -9.64,33.185 8.512,4.298 10.37,8.923 9.64,16.067 -0.871,8.499 -14.372,15.153 -13.912,20.341 0.07,0.838 4.942,3.651 6.414,5.346 12.019,13.868 0.894,27.969 -4.271,43.909 16.737,4.331 15.749,25.437 5.342,36.395 16.717,3.12 27.712,20.401 17.141,38.554 6.581,3.143 12.737,5.295 16.057,10.701 6.497,10.618 -0.424,20.118 -4.288,31.052 22.39,0.411 24.099,22.167 16.057,39.622 15.54,-0.527 19.494,13.728 16.07,28.914 23.485,-4.051 35.668,10.37 27.839,31.039 27.733,-5.603 31.643,12.61 28.911,37.482 10.064,-2.072 15.786,-8.488 29.971,-6.426 8.509,2.906 6.403,16.43 8.569,25.697 13.985,-10.525 42.648,-9.053 35.327,19.28 11.148,-0.551 25.133,-6.38 32.124,4.274 3.674,5.593 1.778,12.43 7.498,17.128 6.43,-3.203 12.326,-6.947 23.558,-5.345 5.942,4.404 9.933,10.761 12.84,18.199 14.031,-12.737 28.406,-9.133 33.198,7.498 11.442,-3.07 13.347,-15.327 24.626,-14.983 11.298,0.317 14.912,13.711 24.625,19.257 5.817,-10.064 17.185,-19.234 31.053,-13.925 6.25,2.4 8.205,11.005 14.986,11.783 1.071,-20.412 26.521,-17.539 35.337,-6.427 4.204,-15.503 20.094,-32.737 37.469,-19.27 0.601,-18.977 24.969,-18.846 35.34,-8.569 -0.353,-17.752 12.761,-28.844 29.968,-22.487 4.265,-14.655 16.965,-20.869 36.398,-20.328 0.248,-12.974 7.488,-18.94 22.484,-17.138 -2.259,-18.129 7.828,-29.865 29.995,-26.771 -6.167,-23.435 10.147,-36.539 32.114,-28.91 -2.283,-14.88 -16.388,-46.663 13.914,-44.968 -0.377,-15.74 6.767,-23.931 22.494,-23.555 -8.076,-16.69 -0.471,-34.856 16.056,-36.408 -11.181,-12.162 -4.144,-37.436 7.498,-42.814 -11.168,-9.263 -11.191,-34.266 4.288,-38.551 -13.998,-7.147 -14.985,-33.785 -2.146,-42.838 -11.912,-12.019 -0.633,-33.492 6.417,-42.825 -17.738,-3.06 -25.436,-32.123 -5.342,-38.54 -10.571,-2.65 -20.778,-9.477 -19.27,-20.342 0.871,-6.379 10.818,-8.759 8.555,-12.853 -17.655,1.598 -26.25,-18.87 -16.056,-32.114 -25.814,4.955 -27.272,-19.694 -20.342,-33.208 -24.943,3.214 -31.086,-21.035 -20.341,-38.527 -19.621,0.41 -36.525,-5.405 -29.982,-27.842 -21.882,0.096 -39.457,-4.071 -35.337,-29.982 -24.392,3.697 -36.681,-4.718 -34.255,-27.839 -18.413,5.169 -42.248,4.955 -40.696,-18.199 -16.608,4.368 -39.258,6.203 -36.398,-17.138 -13.087,8.756 -38.034,11.452 -40.683,-8.559 -16.384,13.845 -31.924,9.183 -41.764,-6.427 -12.726,22.684 -39.401,15.89 -46.038,-8.572 -9.784,19.484 -29.11,20.895 -43.896,4.288zm67.451 -6.417c14.468,-13.761 35.667,-22.39 43.896,2.129 12.997,-10.935 37.352,-10.922 40.692,8.572 11.419,-10.784 45.795,-16.927 41.758,11.769 18.372,-3.083 41.176,-2.119 38.536,19.284 20.565,-5.816 46.452,-3.521 39.625,24.626 14.772,1.284 30.559,1.554 36.398,11.772 0.541,7.321 -0.47,13.1 -3.203,17.128 20.224,1.225 48.064,2.449 37.469,27.853 23.261,-1.522 39.118,21.305 23.555,39.608 22.213,-1.552 42.815,17.518 24.626,34.256 24.085,-5.086 38.083,20.518 20.341,32.126 8.019,2.343 16.718,3.991 21.412,9.627 1.896,9.867 -1.151,18.977 -6.426,24.639 15.386,4.722 29.007,32.631 6.426,39.612 7.158,7.168 15.624,9.099 16.057,18.209 0.544,11.315 -16.504,18.119 -16.057,26.771 0.414,7.899 9.808,7.922 13.928,14.983 1.072,9.643 -2.132,14.999 -6.426,19.27 -4.345,0.297 -7.441,1.839 -11.786,2.142 3.003,10.408 17.845,16.881 14.986,31.043 -1.235,6.146 -7.288,11.031 -14.986,12.856 3.614,12.1 14.161,15.76 10.715,27.84 -2.109,7.357 -15.88,7.931 -17.142,14.985 -1.895,10.688 12.784,13.054 7.498,26.769 -5.012,6.403 -10.781,12.052 -20.341,13.924 8.982,15.139 7.511,41.283 -19.27,35.327 12.056,12.326 2.873,36.221 -16.067,27.839 -1.155,3.684 2.482,11.786 1.084,19.271 -2.696,3.026 -5.909,5.522 -10.714,6.426 -1.058,0.661 0.991,7.204 -1.071,9.63 -4.001,4.331 -12.644,8.136 -20.342,5.356 6.64,19.163 -4.918,32.821 -27.839,28.91 -1.742,24.686 -12.82,40.012 -32.124,47.113 -6.133,10.995 -15.576,18.68 -28.913,22.483 -6.367,7.191 -12.346,14.773 -24.613,16.067 -4.131,5.509 -7.264,12.006 -13.924,14.986 -3.898,0.33 -6.971,-0.164 -9.63,-1.071 -8.452,5.826 -12.891,15.666 -23.568,19.27 -13.618,-3.791 -17.315,9.156 -27.839,11.782 -4.378,0.471 -6.851,-1.001 -9.64,-2.142 -6.277,3.591 -13.375,11.973 -22.484,6.427 -4.698,6.557 -19.908,12.927 -28.9,5.345 -11.489,7.512 -33.339,23.001 -43.896,4.285 -4.876,13.067 -29.628,14.148 -34.266,0 -6.487,11.512 -26.912,14.301 -38.541,2.142 -11.008,13.514 -34.679,6.073 -38.553,-8.569 -12.123,10.287 -29.041,-0.06 -31.043,-12.83 -13.631,9.994 -33.866,1.188 -35.337,-13.938 -16.187,6.11 -35.067,0.457 -35.327,-16.047 -15.563,5.746 -35.337,0.521 -35.337,-16.067 -11.796,1.756 -23.969,1.412 -29.981,-5.355 -1.285,-2.99 -1.178,-7.381 -1.075,-11.772 -18.256,3.92 -29.111,-6.734 -26.768,-26.768 -16.02,-0.741 -25.307,-8.229 -22.484,-27.84 -14.962,-4.004 -33.818,-7.077 -26.767,-33.198 -2.99,-4.141 -13.421,-0.847 -18.2,-3.213 -8.508,-9.133 -2.576,-26.932 1.072,-39.612 -18.6,-0.293 -28.487,-22.436 -14.986,-36.398 -15.903,-4.001 -20.328,-27.248 -9.64,-40.692 -20.071,-0.695 -21.683,-33.586 -8.559,-43.91 -5.519,-4.825 -13.384,-7.311 -17.138,-13.901 -0.988,-14.198 3.4,-23.014 8.569,-31.066 -16.257,-7.912 -17.962,-35.36 0,-42.825 -9.887,-13.397 -14.242,-35.397 4.284,-46.028 -1.128,-6.026 -1.271,-13.017 -1.071,-20.351 3.921,-7.134 11.042,-11.089 16.057,-17.128 -12.984,-20.659 8.923,-32.514 19.27,-42.839 -11.078,-25.296 13.831,-36.808 28.911,-46.024 0.777,-15.28 4.498,-27.629 19.269,-28.924 -7.284,-18.516 5.393,-28.463 18.213,-33.185 1.859,-13.491 9.71,-20.965 24.613,-21.399 8.829,-9.076 19.4,-21.966 34.269,-21.426 -1.462,-16.807 9.994,-20.705 26.768,-19.28 -2.319,-23.144 19.093,-29.878 37.469,-20.341 4.048,-14.645 15.266,-31.88 36.408,-22.474 1.425,-16.597 21.049,-27.439 34.269,-13.938 9.417,-16.207 25.153,-34.102 41.741,-11.772 13.16,-8.616 17.235,-31.71 36.421,-17.115 2.203,1.672 6.898,9.561 8.559,9.631 4.438,0.186 29.768,-35.057 41.754,-14.986 0.517,8.052 2.566,14.562 5.356,20.341z"/>
  </g>
 </g>
</svg>
