<?xml version="1.0" encoding="UTF-8"?>
<!DOCTYPE svg PUBLIC "-//W3C//DTD SVG 1.1//EN" "http://www.w3.org/Graphics/SVG/1.1/DTD/svg11.dtd">
<!-- Creator: CorelDRAW -->
<svg xmlns="http://www.w3.org/2000/svg" xml:space="preserve" width="100px" height="100px" version="1.1" style="shape-rendering:geometricPrecision; text-rendering:geometricPrecision; image-rendering:optimizeQuality; fill-rule:evenodd; clip-rule:evenodd"
viewBox="0 0 100 100"
 xmlns:xlink="http://www.w3.org/1999/xlink"
 xmlns:xodm="http://www.corel.com/coreldraw/odm/2003">
 <defs>
  <style type="text/css">
   <![CDATA[
    .str0 {stroke:black;stroke-width:0.288;stroke-miterlimit:10}
    .str1 {stroke:black;stroke-width:0.288;stroke-miterlimit:10}
    .str2 {stroke:black;stroke-width:0.288;stroke-miterlimit:10}
    .fil0 {fill:black;fill-rule:nonzero}
   ]]>
  </style>
 </defs>
 <g id="Layer_x0020_1">
  <metadata id="CorelCorpID_0Corel-Layer"/>
  <g id="_2551931061968">
   <path class="fil0 str0" d="M25.107 40.829c-2.041,-2.068 -6.126,-2.951 -8.587,-1.098 -0.113,0.085 0.025,0.204 0.122,0.189 1.383,-0.208 2.653,-0.371 4.037,-0.06 1.338,0.301 2.451,0.926 3.495,1.809 0.582,0.492 1.531,-0.235 0.933,-0.84z"/>
   <path class="fil0 str0" d="M21.739 37.061c-1.953,-0.206 -4.195,0.553 -5.91,1.43 -0.882,0.45 -1.706,0.994 -2.455,1.642 -0.545,0.473 -1.457,1.181 -1.543,1.94 -0.004,0.035 0.041,0.056 0.069,0.048 0.695,-0.206 1.25,-0.883 1.829,-1.307 0.811,-0.595 1.703,-1.11 2.618,-1.526 0.867,-0.393 1.782,-0.692 2.711,-0.898 0.94,-0.209 1.883,-0.214 2.829,-0.345 0.67,-0.093 0.403,-0.926 -0.148,-0.984z"/>
   <path class="fil0 str0" d="M64.141 37.763c-0.955,-0.58 -2.248,-0.631 -3.328,-0.491 -0.57,0.074 -1.488,0.232 -2.045,0.644 -1.257,-1.151 -2.996,-1.992 -4.559,-2.621 -1.187,-0.477 -2.526,-1 -3.849,-1.125 -1.537,-1.881 -3.889,-2.924 -6.314,-3.085 -0.683,-0.045 -0.69,0.958 0,0.973 2.143,0.044 4.102,0.828 5.774,2.084 -0.186,-0.001 -0.371,0.005 -0.554,0.024 -0.034,0.003 -0.055,0.044 -0.02,0.064 0.472,0.262 0.972,0.475 1.483,0.668 0.055,0.051 0.111,0.1 0.166,0.152 0.028,0.026 0.082,-0.005 0.06,-0.042 -0.007,-0.011 -0.015,-0.022 -0.022,-0.033 0.985,0.361 2.004,0.662 2.946,1.098 1.557,0.721 2.925,1.688 4.416,2.511 0.204,0.111 0.438,0.032 0.565,-0.117 0.658,-0.054 1.366,-0.371 2.01,-0.427 1.039,-0.09 1.98,0.167 2.993,0.316 0.364,0.053 0.651,-0.366 0.278,-0.593z"/>
   <path class="fil0 str0" d="M75.936 34.705c-1.032,-0.071 -2.186,0.405 -3.184,0.646 -1.12,0.27 -2.24,0.538 -3.358,0.812 -1.06,0.26 -2.117,0.535 -3.178,0.804 -1.026,0.26 -2.218,0.489 -3.114,1.076 -0.062,0.041 -0.03,0.112 0.036,0.119 1.031,0.119 2.143,-0.172 3.15,-0.37 1.133,-0.223 2.262,-0.461 3.391,-0.705 1.069,-0.231 2.14,-0.468 3.209,-0.701 1.041,-0.228 2.374,-0.306 3.298,-0.848 0.444,-0.26 0.207,-0.801 -0.25,-0.833z"/>
   <path class="fil0 str0" d="M90.687 62.256c-1.293,0.399 -2.539,1.014 -3.798,1.512 -1.393,0.55 -2.794,1.081 -4.202,1.594 -2.689,0.978 -5.404,1.891 -8.138,2.728 -2.741,0.838 -5.504,1.582 -8.274,2.304 -1.384,0.361 -2.772,0.705 -4.157,1.061 -0.311,0.08 -0.63,0.155 -0.949,0.232 0.035,-0.047 0.069,-0.095 0.1,-0.144 0.264,-0.41 -0.278,-0.723 -0.627,-0.564 -0.989,0.449 -1.864,1.343 -2.785,1.935 -0.863,0.554 -1.803,1.029 -2.558,1.734 -0.031,0.028 -0.005,0.076 0.035,0.075 1.136,-0.038 2.199,-0.527 3.174,-1.077 0.427,-0.241 0.931,-0.52 1.407,-0.841 0.835,-0.108 1.67,-0.302 2.474,-0.463 1.404,-0.281 2.8,-0.61 4.189,-0.958 2.828,-0.706 5.631,-1.536 8.411,-2.412 2.732,-0.86 5.441,-1.783 8.125,-2.777 1.279,-0.474 2.555,-0.962 3.824,-1.465 1.358,-0.54 2.817,-1.02 4.099,-1.728 0.446,-0.248 0.119,-0.89 -0.35,-0.746z"/>
   <path class="fil0 str0" d="M41.88 34.897c-2.275,0.233 -4.403,0.817 -6.369,1.984 -1.774,0.354 -3.55,0.982 -5.171,1.57 -1.173,0.425 -2.341,0.902 -3.429,1.513 -0.933,0.523 -2.274,1.182 -2.809,2.152 -0.041,0.074 0.032,0.136 0.105,0.123 1.068,-0.198 2.09,-0.975 3.044,-1.474 1.116,-0.585 2.237,-1.161 3.398,-1.653 1.186,-0.503 2.396,-0.891 3.647,-1.193 1.23,-0.296 2.493,-0.412 3.722,-0.692 0.389,-0.09 0.295,-0.635 -0.094,-0.627 -0.276,0.005 -0.553,0.023 -0.83,0.049 1.516,-0.773 3.125,-1.379 4.794,-1.694 0.036,-0.007 0.028,-0.062 -0.008,-0.058z"/>
   <path class="fil0 str0" d="M25.49 36.264c-0.265,-0.754 -0.541,-1.503 -0.833,-2.247 -0.547,-1.396 -1.129,-2.779 -1.747,-4.145 -1.227,-2.717 -2.586,-5.374 -4.077,-7.957 -2.994,-5.184 -6.431,-10.442 -10.79,-14.59 -0.023,-0.022 -0.073,0.005 -0.052,0.036 3.511,4.858 7.164,9.526 10.096,14.777 1.491,2.671 2.845,5.418 4.049,8.23 0.589,1.375 1.143,2.765 1.661,4.168 0.242,0.656 0.482,1.312 0.714,1.971 0.241,0.687 0.408,1.437 0.803,2.053 0.188,0.295 0.795,0.213 0.772,-0.188 -0.04,-0.728 -0.356,-1.425 -0.596,-2.108z"/>
   <path class="fil0 str0" d="M25.933 40.676c-0.361,-1.272 -1.31,-2.538 -1.969,-3.681 -0.672,-1.168 -1.366,-2.323 -2.075,-3.47 -1.446,-2.336 -2.932,-4.643 -4.513,-6.891 -1.581,-2.246 -3.25,-4.436 -4.996,-6.557 -0.812,-0.987 -1.649,-1.955 -2.507,-2.902 -0.863,-0.953 -1.794,-2.178 -2.921,-2.818 -0.024,-0.014 -0.07,0.007 -0.057,0.038 0.468,1.083 1.47,2.028 2.205,2.942 0.84,1.046 1.682,2.09 2.512,3.143 1.698,2.155 3.33,4.358 4.899,6.61 1.539,2.207 3.022,4.462 4.396,6.776 0.687,1.158 1.349,2.331 1.994,3.513 0.322,0.59 0.64,1.184 0.953,1.781 0.329,0.628 0.6,1.358 1.041,1.91 0.334,0.418 1.218,0.243 1.038,-0.394z"/>
   <path class="fil0 str0" d="M45.438 13.583c-2.657,3.219 -4.585,7.235 -6.056,11.117 -0.744,1.966 -1.364,3.984 -1.852,6.028 -0.255,1.069 -0.474,2.146 -0.654,3.231 -0.144,0.864 -0.566,2.134 -0.236,2.954 0.152,0.378 0.736,0.493 0.967,0.113 0.459,-0.752 0.323,-1.911 0.421,-2.776 0.125,-1.098 0.289,-2.19 0.493,-3.276 0.38,-2.017 0.896,-4.003 1.542,-5.95 0.669,-2.017 1.472,-3.989 2.407,-5.897 0.928,-1.891 2.045,-3.656 3.091,-5.479 0.046,-0.08 -0.072,-0.126 -0.123,-0.065z"/>
   <path class="fil0 str0" d="M37.471 12.358c-0.465,-1.027 -1.299,-1.938 -1.985,-2.828 -0.772,-1.001 -1.576,-1.972 -2.369,-2.957 -0.019,-0.024 -0.066,-0.005 -0.047,0.025 0.673,1.048 1.33,2.103 2.025,3.138 0.628,0.934 1.233,2.016 2.057,2.789 0.112,0.105 0.4,0.011 0.319,-0.167z"/>
   <path class="fil0 str0" d="M44.834 13.485c-1.117,-0.472 -2.467,-0.592 -3.66,-0.79 -1.199,-0.199 -2.479,-0.484 -3.699,-0.435 -0.024,0.001 -0.04,0.033 -0.014,0.046 1.092,0.509 2.357,0.728 3.526,0.998 1.176,0.271 2.487,0.681 3.699,0.675 0.257,-0.001 0.432,-0.374 0.148,-0.494z"/>
   <path class="fil0 str0" d="M32.799 6.646c-1.282,0.391 -2.551,0.794 -3.816,1.237 -1.164,0.409 -2.395,0.752 -3.513,1.276 -0.042,0.02 -0.066,0.048 -0.084,0.077 -1.525,-0.15 -3.167,-0.166 -4.687,0.005 -0.283,0.032 -0.299,0.401 0,0.413 1.525,0.057 3.157,-0.08 4.665,-0.343 -0.004,0.125 0.125,0.259 0.279,0.216 1.19,-0.328 2.345,-0.867 3.495,-1.314 1.241,-0.483 2.458,-0.997 3.678,-1.531 0.023,-0.01 0.005,-0.042 -0.017,-0.036z"/>
   <path class="fil0 str0" d="M26.131 37.058c-0.231,-1.137 -0.463,-2.275 -0.695,-3.413 -0.452,-2.218 -0.902,-4.437 -1.369,-6.653 -0.945,-4.486 -2,-8.951 -2.898,-13.445 -0.006,-0.031 -0.058,-0.02 -0.053,0.013 0.763,4.476 1.368,8.983 2.083,13.468 0.349,2.184 0.712,4.365 1.074,6.547 0.191,1.148 0.382,2.296 0.573,3.444 0.186,1.118 0.237,2.366 0.605,3.436 0.211,0.611 1.32,0.558 1.297,-0.158 -0.035,-1.082 -0.401,-2.18 -0.617,-3.239z"/>
   <path class="fil0 str0" d="M47.091 94.817c-0.158,-2.543 -0.816,-5.114 -1.282,-7.614l-0.727 -3.908c-0.248,-1.331 -0.317,-2.801 -0.74,-4.083 -0.118,-0.357 -0.791,-0.326 -0.761,0.093 0.093,1.273 0.554,2.554 0.818,3.804 0.273,1.295 0.547,2.59 0.82,3.885 0.542,2.567 0.928,5.279 1.769,7.77 -0.563,-0.213 -1.146,-0.23 -1.743,-0.287 -0.895,-0.085 -1.785,-0.189 -2.671,-0.337 -0.76,-0.126 -1.521,-0.265 -2.275,-0.423 -0.626,-0.131 -1.277,-0.323 -1.921,-0.332 -0.268,-2.219 -0.665,-4.427 -0.898,-6.653 -0.262,-2.511 -0.346,-5.027 -0.53,-7.542 -0.033,-0.449 -0.782,-0.459 -0.775,0 0.038,2.574 0.375,5.164 0.742,7.709 0.31,2.149 0.637,4.382 1.211,6.495 -0.02,0.005 -0.039,0.018 -0.048,0.035 -0.056,-0.018 -0.119,-0.019 -0.184,0.013 -1.255,0.627 -2.366,1.741 -3.463,2.608 -0.993,0.785 -2.127,1.548 -2.985,2.496 -0.024,-0.068 -0.077,-0.133 -0.171,-0.183 -1.399,-0.759 -3.13,-1.117 -4.642,-1.61 -1.504,-0.491 -3.006,-1.03 -4.565,-1.296 1.424,-2.817 2.713,-5.651 3.671,-8.668 0.491,-1.545 0.896,-3.115 1.229,-4.701 0.285,-1.36 0.799,-3.052 0.555,-4.439 -0.019,-0.104 -0.206,-0.123 -0.25,-0.03 -0.603,1.284 -0.663,2.916 -0.983,4.301 -0.353,1.527 -0.779,3.039 -1.256,4.532 -0.972,3.037 -2.183,6.073 -3.748,8.855 -0.241,0.428 0.476,0.757 0.679,0.356 0.006,-0.011 0.011,-0.023 0.018,-0.035 1.302,0.709 2.725,1.179 4.119,1.683 1.575,0.569 3.234,1.389 4.883,1.671 0.197,0.033 0.378,-0.081 0.446,-0.228 1.163,-0.581 2.21,-1.488 3.241,-2.26 1.139,-0.853 2.558,-1.661 3.493,-2.736 0.022,-0.025 0.035,-0.05 0.044,-0.076 0.05,0.177 0.098,0.355 0.152,0.53 0.016,0.051 0.113,0.045 0.107,-0.013 -0.017,-0.162 -0.036,-0.324 -0.055,-0.486 1.108,0.693 2.724,0.911 3.942,1.136 1.378,0.255 3.228,0.754 4.604,0.368 0.168,-0.048 0.264,-0.283 0.13,-0.4z"/>
   <path class="fil0 str0" d="M20.024 85.928c0.79,-1.024 1.541,-2.077 2.252,-3.157 0.683,-1.036 1.338,-2.095 1.938,-3.182 0.506,-0.917 1.305,-2.081 1.36,-3.15 0.001,-0.009 -0.012,-0.012 -0.018,-0.007 -0.809,0.727 -1.286,1.966 -1.835,2.898 -0.631,1.072 -1.287,2.127 -1.986,3.156 -0.7,1.028 -1.437,2.031 -2.207,3.008 -0.759,0.963 -1.701,1.848 -2.365,2.872 -0.199,0.305 0.257,0.531 0.488,0.34 0.011,-0.01 0.023,-0.021 0.034,-0.031 0.786,0.651 1.91,1.005 2.837,1.395 0.992,0.417 2.074,1.055 3.141,1.215 0.288,0.044 0.725,-0.323 0.372,-0.574 -0.871,-0.616 -2.037,-0.89 -3.032,-1.266 -0.962,-0.363 -2.023,-0.876 -3.062,-0.998 0.782,-0.734 1.439,-1.687 2.083,-2.519z"/>
   <path class="fil0 str0" d="M51.231 89.291c-1.13,-1.628 -2.366,-3.154 -3.381,-4.865 -1.007,-1.696 -1.688,-3.586 -2.721,-5.254 -0.083,-0.134 -0.295,-0.049 -0.27,0.102 0.317,1.902 1.409,3.827 2.34,5.494 0.858,1.536 1.807,3.104 2.967,4.447 -0.542,0.064 -1.084,0.099 -1.633,0.076 -0.767,-0.034 -1.477,-0.243 -2.231,-0.341 -0.378,-0.049 -0.775,0.453 -0.311,0.665 1.482,0.676 3.463,0.6 5.007,0.193 0.217,-0.058 0.378,-0.309 0.233,-0.517z"/>
   <path class="fil0 str0" d="M28.872 39.18c-2.042,-9.117 -2.8,-18.615 -2.755,-27.948 0,-0.02 -0.032,-0.019 -0.034,0 -0.316,4.747 -0.357,9.517 0.051,14.261 0.401,4.657 1.132,9.277 2.044,13.86 0.08,0.403 0.79,0.254 0.694,-0.173z"/>
   <path class="fil0 str0" d="M33.768 8.247c-1.428,4.937 -2.524,9.924 -3.251,15.016 -0.365,2.556 -0.647,5.124 -0.85,7.699 -0.102,1.286 -0.183,2.574 -0.243,3.863 -0.058,1.253 -0.207,2.56 -0.01,3.803 0.06,0.377 0.769,0.374 0.832,0 0.198,-1.188 0.097,-2.432 0.12,-3.635 0.025,-1.288 0.07,-2.577 0.136,-3.864 0.129,-2.517 0.341,-5.029 0.632,-7.532 0.599,-5.145 1.497,-10.296 2.686,-15.337 0.008,-0.032 -0.044,-0.043 -0.052,-0.013z"/>
   <path class="fil0 str0" d="M37.114 14.937c-1.642,3.736 -3.052,7.448 -3.995,11.43 -0.906,3.826 -1.574,7.814 -1.678,11.749 -0.016,0.603 0.996,0.6 1.026,0 0.39,-7.897 1.671,-15.807 4.71,-23.164 0.015,-0.037 -0.049,-0.049 -0.063,-0.015z"/>
   <path class="fil0 str0" d="M27.644 1.024c-1.217,0.434 -2.366,1.342 -3.452,2.036 -1.056,0.676 -2.189,1.316 -3.161,2.116 -1.095,-0.041 -2.225,0.165 -3.312,0.279 -1.132,0.12 -2.263,0.243 -3.393,0.377 -1.03,0.123 -2.062,0.239 -3.092,0.368 -0.99,0.125 -2.118,0.16 -3.042,0.555 -0.042,0.018 -0.03,0.082 0.013,0.09 0.985,0.177 2.079,-0.033 3.068,-0.127 1.131,-0.108 2.262,-0.235 3.392,-0.353 1.076,-0.111 2.15,-0.238 3.224,-0.365 1.077,-0.127 2.23,-0.173 3.276,-0.465 0.121,-0.034 0.157,-0.132 0.133,-0.217 1.154,-0.532 2.242,-1.255 3.328,-1.905 1.05,-0.63 2.341,-1.219 3.219,-2.077 0.142,-0.139 -0.014,-0.379 -0.201,-0.312z"/>
   <path class="fil0 str0" d="M28.792 4.47c-0.127,-1.119 -0.206,-2.262 -0.55,-3.34 -0.007,-0.022 -0.041,-0.017 -0.043,0.005 -0.112,1.166 0.068,2.342 0.185,3.502 0.119,1.166 0.247,2.342 0.417,3.501 0.028,0.196 0.363,0.209 0.349,0 -0.085,-1.222 -0.219,-2.45 -0.358,-3.668z"/>
   <path class="fil0 str0" d="M22.12 7.884c-0.134,-0.675 -0.345,-1.508 -0.71,-2.097 -0.049,-0.078 -0.193,-0.05 -0.194,0.047 -0.004,0.688 0.264,1.512 0.504,2.15 0.084,0.223 0.449,0.147 0.4,-0.1z"/>
   <path class="fil0 str0" d="M12.029 12.831c-1.59,0.309 -3.346,0.924 -4.812,1.611 -0.197,0.092 -0.038,0.329 0.139,0.296 1.598,-0.297 3.388,-0.817 4.867,-1.494 0.274,-0.126 0.053,-0.461 -0.194,-0.413z"/>
   <path class="fil0 str0" d="M45.803 3.047c-1.483,0.076 -2.974,0.528 -4.417,0.863 -1.226,0.284 -2.535,0.499 -3.737,0.916 0.001,-0.006 0.002,-0.012 0.002,-0.018 0.002,-0.025 -0.04,-0.034 -0.051,-0.013 -0.009,0.02 -0.018,0.04 -0.028,0.06 -0.109,0.039 -0.218,0.076 -0.325,0.119 -0.02,-0.013 -0.043,-0.024 -0.072,-0.031 -1.31,-0.352 -2.653,-0.533 -4.006,-0.612 -1.151,-0.068 -2.597,-0.209 -3.682,0.249 -0.049,0.02 -0.03,0.087 0.014,0.099 0.044,0.011 0.089,0.02 0.133,0.03 -0.272,0.426 -0.348,0.946 -0.434,1.44 -0.093,0.54 -0.286,1.134 -0.211,1.68 0.044,0.311 0.454,0.352 0.579,0.07 0.224,-0.505 0.206,-1.126 0.268,-1.673 0.055,-0.488 0.13,-1.003 -0.01,-1.478 1.015,0.182 2.162,0.048 3.177,0.106 1.36,0.078 2.705,0.281 4.05,0.486 0.193,0.03 0.32,-0.141 0.275,-0.272 0.049,-0.003 0.099,-0.008 0.148,-0.012 -0.394,0.856 -0.639,1.786 -0.921,2.681 -0.339,1.081 -0.794,2.188 -0.991,3.303 -0.051,0.287 0.357,0.371 0.463,0.115 0.431,-1.048 0.64,-2.222 0.932,-3.318 0.246,-0.916 0.545,-1.847 0.664,-2.792 1.303,-0.11 2.622,-0.461 3.893,-0.714 1.369,-0.271 2.823,-0.469 4.142,-0.949 -0.005,0.004 -0.01,0.008 -0.014,0.014 -1.999,2.907 -3.351,6.015 -4.164,9.454 -0.092,0.391 0.56,0.533 0.642,0.159 0.73,-3.313 1.981,-6.59 3.607,-9.568 0.022,-0.04 -0.017,-0.071 -0.052,-0.065 0.068,-0.025 0.136,-0.047 0.203,-0.073 0.144,-0.056 0.058,-0.263 -0.077,-0.256z"/>
   <path class="fil0 str0" d="M41.265 86.561c-0.192,-0.774 -0.364,-1.553 -0.501,-2.338 -0.151,-0.86 -0.269,-1.733 -0.324,-2.606 -0.048,-0.759 0.093,-1.587 -0.133,-2.315 -0.096,-0.308 -0.619,-0.326 -0.706,0 -0.197,0.74 0.017,1.566 0.113,2.315 0.104,0.819 0.224,1.633 0.39,2.442 0.17,0.833 0.372,1.66 0.631,2.47 0.24,0.751 0.452,1.606 0.956,2.227 0.02,0.024 0.072,0.022 0.071,-0.017 -0.007,-0.741 -0.32,-1.464 -0.497,-2.178z"/>
   <path class="fil0 str0" d="M25.829 77.026c-0.286,0.781 -0.299,1.659 -0.512,2.467 -0.226,0.859 -0.518,1.708 -0.829,2.54 -0.292,0.783 -0.601,1.56 -0.947,2.322 -0.357,0.783 -0.836,1.575 -1.066,2.405 -0.025,0.091 0.102,0.149 0.164,0.086 1.162,-1.169 1.883,-2.984 2.511,-4.488 0.344,-0.825 0.646,-1.666 0.922,-2.516 0.286,-0.876 0.727,-1.765 0.797,-2.689 0.044,-0.58 -0.865,-0.604 -1.04,-0.127z"/>
   <path class="fil0 str0" d="M45.195 91.199c0.111,-0.111 0.048,-0.256 -0.088,-0.302 -0.12,-0.041 -0.24,-0.042 -0.356,-0.016 0.059,-0.031 0.103,-0.085 0.102,-0.162 -0.013,-0.962 -0.245,-1.932 -0.382,-2.884 -0.138,-0.961 -0.277,-1.921 -0.416,-2.883 -0.262,-1.819 -0.569,-3.625 -0.904,-5.432 -0.004,-0.02 -0.042,-0.016 -0.041,0.005 0.161,1.928 0.357,3.847 0.597,5.767 0.223,1.793 0.266,3.731 0.717,5.479 0.027,0.104 0.129,0.147 0.226,0.14 -0.398,0.145 -0.731,0.606 -0.821,0.97 -0.092,0.378 0.022,0.94 0.338,1.227 -0.938,-0.249 -1.952,-0.352 -2.895,-0.49 -0.998,-0.146 -1.981,-0.296 -2.986,-0.338 0.003,-0.004 0.008,-0.006 0.011,-0.009 0.189,-0.147 -0.074,-0.42 -0.256,-0.299 -1.147,0.765 -2.248,1.606 -3.359,2.423 -1.154,0.848 -2.395,1.657 -3.438,2.643 0.045,-0.067 0.044,-0.157 -0.055,-0.204 -1.427,-0.686 -3.112,-1.199 -4.661,-1.532 0.431,-0.451 0.529,-1.309 0.237,-1.804 -0.368,-0.622 -1.136,-0.785 -1.761,-0.539 1.036,-2.318 1.77,-4.808 2.406,-7.259 0.619,-2.386 1.237,-4.939 1.297,-7.414 0.001,-0.033 -0.052,-0.038 -0.061,-0.008 -0.695,2.457 -1.127,4.984 -1.83,7.444 -0.706,2.468 -1.64,4.839 -2.504,7.253 -0.133,0.373 0.472,0.476 0.619,0.153 0.007,-0.016 0.014,-0.032 0.02,-0.048 0.584,-0.155 1.291,0.111 1.516,0.705 0.102,0.269 0.091,0.59 -0.005,0.86 -0.126,0.352 -0.382,0.481 -0.624,0.731 -0.079,0.082 -0.022,0.231 0.102,0.22 0.217,-0.02 0.401,-0.114 0.549,-0.255 1.395,0.724 3.041,1.4 4.569,1.773 0.05,0.013 0.097,-0.001 0.135,-0.026 -0.032,0.04 0.02,0.09 0.065,0.066 1.21,-0.643 2.319,-1.511 3.437,-2.3 1.171,-0.825 2.366,-1.633 3.501,-2.508 1.075,0.331 2.175,0.53 3.281,0.729 1.036,0.188 2.125,0.452 3.181,0.451 0.167,0 0.191,-0.206 0.039,-0.259 -0.022,-0.008 -0.045,-0.013 -0.067,-0.021 0.029,-0.025 0.045,-0.063 0.031,-0.109 -0.121,-0.398 -0.404,-0.664 -0.281,-1.119 0.127,-0.469 0.521,-0.521 0.815,-0.819z"/>
   <path class="fil0 str0" d="M26.15 77.887c-0.957,1.283 -1.688,2.799 -2.469,4.196 -0.669,1.195 -1.444,2.403 -1.972,3.675 -0.225,-0.126 -0.493,-0.197 -0.807,-0.188 -0.09,0.002 -0.184,0.125 -0.09,0.193 0.556,0.403 1.076,0.766 1.146,1.517 0.084,0.896 -0.504,1.302 -1.167,1.737 -0.192,0.127 -0.123,0.42 0.125,0.412 0.389,-0.012 0.709,-0.146 0.961,-0.355 0.24,0.172 0.527,0.29 0.79,0.417 0.358,0.173 0.711,0.368 1.09,0.491 0.301,0.097 0.543,-0.343 0.231,-0.494 -0.359,-0.174 -0.755,-0.273 -1.134,-0.396 -0.251,-0.08 -0.506,-0.176 -0.767,-0.228 0.7,-0.841 0.628,-2.391 -0.241,-3.018 0.924,-1.183 1.659,-2.566 2.43,-3.843 0.777,-1.289 1.673,-2.583 2.279,-3.963 0.103,-0.233 -0.283,-0.317 -0.405,-0.153z"/>
   <path class="fil0 str0" d="M21.184 6.739c-1.203,-0.085 -2.456,0.086 -3.659,0.154 -1.114,0.062 -2.252,0.098 -3.352,0.289 -0.02,0.004 -0.034,0.012 -0.045,0.021 -0.208,-0.053 -0.497,0.178 -0.267,0.356 0.517,0.402 0.82,1.173 0.285,1.718 -0.545,0.554 -1.324,0.177 -1.768,-0.281 -0.069,-0.071 -0.188,-0.001 -0.171,0.09 0.179,0.966 1.629,1.091 2.263,0.545 0.632,-0.544 0.61,-1.742 -0.05,-2.262 1.14,0.062 2.3,-0.022 3.438,-0.071 1.116,-0.048 2.277,-0.013 3.379,-0.203 0.236,-0.041 0.154,-0.341 -0.053,-0.356z"/>
   <path class="fil0 str0" d="M28.109 3.921c-0.379,0.091 -0.752,0.164 -1.108,-0.048 -0.236,-0.14 -0.414,-0.381 -0.523,-0.643 0.111,-0.122 0.03,-0.279 -0.098,-0.325 -0.003,-0.014 -0.006,-0.028 -0.009,-0.042 -0.003,-0.026 -0.044,-0.02 -0.052,0 -0.004,0.01 -0.006,0.019 -0.01,0.029 -0.037,0 -0.076,0.008 -0.113,0.03 -0.819,0.483 -1.558,1.143 -2.302,1.734 -0.807,0.639 -1.699,1.254 -2.372,2.036 -0.045,0.053 0.015,0.116 0.074,0.087 0.856,-0.418 1.614,-1.05 2.38,-1.611 0.751,-0.55 1.574,-1.086 2.268,-1.717 0.118,0.916 1.317,1.555 2.131,0.88 0.221,-0.183 -0.037,-0.465 -0.266,-0.41z"/>
   <path class="fil0 str0" d="M25.39 36.941c-0.205,-1.693 -0.454,-3.382 -0.724,-5.07 0.185,0.222 0.66,0.104 0.537,-0.209 -0.304,-0.775 -0.624,-1.542 -0.952,-2.305 -0.345,-2.036 -0.703,-4.069 -1.037,-6.102 -0.376,-2.289 -0.754,-4.577 -1.163,-6.86 -0.418,-2.328 -0.798,-4.693 -1.468,-6.963 -0.027,-0.091 -0.191,-0.078 -0.187,0.023 0.078,2.3 0.454,4.596 0.781,6.872 0.326,2.275 0.69,4.545 1.055,6.814 0.144,0.902 0.284,1.805 0.422,2.709 -0.929,-1.924 -1.923,-3.817 -2.966,-5.682 -2.054,-3.672 -4.315,-7.37 -7.071,-10.563 -0.021,-0.025 -0.065,0.004 -0.048,0.033 2.108,3.593 4.423,7.057 6.452,10.702 1.439,2.586 2.756,5.235 4.001,7.918 0.45,2.94 0.917,5.879 1.51,8.787 0.088,0.429 0.913,0.348 0.858,-0.104z"/>
   <path class="fil0 str0" d="M24.951 10.558c-0.119,-0.131 -0.377,-0.035 -0.378,0.141 -0.002,0.22 0.086,0.424 0.077,0.647 -0.011,0.283 -0.111,0.558 -0.296,0.773 -0.365,0.425 -0.991,0.502 -1.512,0.394 -0.06,-0.012 -0.138,0.064 -0.072,0.113 0.565,0.431 1.354,0.333 1.87,-0.14 0.471,-0.433 0.793,-1.399 0.311,-1.928z"/>
   <path class="fil0 str0" d="M32.261 7.618c-1.143,0.33 -2.253,0.835 -3.358,1.274 -1.193,0.474 -2.386,0.942 -3.543,1.503 -0.032,0.015 -0.008,0.058 0.024,0.05 1.244,-0.351 2.454,-0.795 3.669,-1.233 1.119,-0.405 2.284,-0.762 3.357,-1.274 0.202,-0.096 0.048,-0.377 -0.149,-0.32z"/>
   <path class="fil0 str0" d="M37.283 13.586c-1.163,-1.986 -2.722,-3.804 -4.15,-5.601 -0.014,-0.018 -0.048,-0.004 -0.035,0.018 1.133,1.973 2.239,4.07 3.643,5.868 0.216,0.276 0.744,0.061 0.542,-0.285z"/>
   <path class="fil0 str0" d="M41.857 14.193c-0.038,0 -0.076,0.001 -0.113,0.003 -0.028,-0.03 -0.063,-0.056 -0.11,-0.071 -1.158,-0.377 -2.626,-0.495 -3.839,-0.517 -0.056,-0.002 -0.061,0.066 -0.013,0.084 0.974,0.358 2.105,0.7 3.176,0.842 -0.726,0.663 -0.763,2.09 0.347,2.424 -0.008,0.003 -0.015,0.006 -0.02,0.013 -2.082,3.055 -3.42,6.724 -4.386,10.27 -0.971,3.565 -1.622,7.391 -1.536,11.096 0.009,0.436 0.726,0.435 0.743,0 0.144,-3.769 0.465,-7.436 1.4,-11.105 0.911,-3.578 2.391,-6.861 3.854,-10.232 0.004,-0.011 0.003,-0.02 -0.002,-0.027 0.253,0.051 0.429,-0.228 0.253,-0.423 -0.332,-0.368 -0.655,-0.643 -0.611,-1.196 0.026,-0.317 0.185,-0.575 0.409,-0.773 0.051,0.005 0.104,0.011 0.155,0.014 0.188,0.011 0.275,-0.139 0.248,-0.275 0.025,-0.012 0.048,-0.025 0.073,-0.035 0.053,-0.023 0.02,-0.091 -0.028,-0.092z"/>
   <path class="fil0 str0" d="M26.737 36.167c-0.158,-1.095 -0.315,-2.19 -0.476,-3.285 -0.33,-2.248 -0.661,-4.496 -0.992,-6.744 -0.308,-2.099 -0.602,-4.201 -0.928,-6.298 -0.343,-2.208 -0.576,-4.532 -1.191,-6.682 -0.013,-0.047 -0.093,-0.039 -0.093,0.011 -0.004,2.177 0.402,4.412 0.665,6.571 0.275,2.251 0.592,4.496 0.89,6.744 0.29,2.19 0.579,4.381 0.871,6.571 0.146,1.095 0.295,2.19 0.444,3.285 0.143,1.062 0.21,2.166 0.514,3.197 0.1,0.342 0.686,0.285 0.69,-0.084 0.01,-1.095 -0.238,-2.204 -0.394,-3.286z"/>
   <path class="fil0 str1" d="M21.762 46.951c-0.575,1.197 -1.148,2.424 -1.577,3.681 -0.032,0.092 0.129,0.148 0.169,0.063 0.567,-1.2 1.013,-2.475 1.433,-3.734 0.005,-0.014 -0.019,-0.022 -0.025,-0.01z"/>
   <path class="fil0 str1" d="M20.555 50.443c-0.003,-0.016 -0.029,-0.01 -0.026,0.006 0.251,1.223 0.426,2.471 0.735,3.681 0.025,0.099 0.19,0.061 0.171,-0.043 -0.228,-1.226 -0.593,-2.43 -0.88,-3.644z"/>
   <path class="fil0 str1" d="M23.363 62.408c-0.629,-1.023 -1.184,-1.992 -1.332,-3.199 -0.137,-1.116 -0.221,-2.143 -0.024,-3.262 0.002,-0.016 -0.022,-0.022 -0.027,-0.007 -0.675,2.178 -0.295,4.78 1.194,6.568 0.077,0.091 0.262,0.021 0.189,-0.1z"/>
   <path class="fil0 str0" d="M23.61 63.007c-0.003,-0.019 -0.036,-0.022 -0.043,-0.006 -0.5,1.053 -0.567,2.521 -0.659,3.675 -0.012,0.145 0.245,0.172 0.274,0.034 0.244,-1.132 0.609,-2.553 0.428,-3.703z"/>
   <path class="fil0 str0" d="M25.766 71.817c-0.824,-1.488 -1.651,-3.066 -2.691,-4.416 -0.03,-0.039 -0.125,-0.021 -0.1,0.038 0.665,1.574 1.636,3.064 2.531,4.514 0.091,0.147 0.35,0.027 0.26,-0.136z"/>
   <path class="fil0 str0" d="M26.804 75.952c-1.16,-1.038 -1.361,-2.579 -0.803,-3.982 0.021,-0.054 -0.067,-0.075 -0.094,-0.035 -0.946,1.341 -0.562,3.205 0.622,4.264 0.168,0.15 0.46,-0.082 0.275,-0.247z"/>
   <path class="fil0 str0" d="M60.162 71.91c-1.478,0.863 -2.96,1.719 -4.433,2.59 -0.686,0.407 -1.375,0.812 -2.049,1.239 -0.576,0.364 -1.285,0.711 -1.615,1.33 -0.021,0.038 0.007,0.079 0.05,0.079 0.726,-0.006 1.37,-0.411 2.001,-0.737 0.711,-0.367 1.411,-0.756 2.111,-1.144 1.499,-0.83 2.989,-1.675 4.483,-2.514 0.612,-0.344 0.014,-1.171 -0.548,-0.843z"/>
   <path class="fil0 str0" d="M44.256 31.309c-0.492,-0.939 -1.581,-1.709 -2.427,-2.314 -0.801,-0.573 -1.782,-1.272 -2.778,-1.405 -0.117,-0.016 -0.217,0.092 -0.126,0.195 0.649,0.729 1.64,1.233 2.39,1.868 0.778,0.66 1.429,1.548 2.245,2.14 0.351,0.255 0.939,-0.019 0.696,-0.484z"/>
   <path class="fil0 str0" d="M22.129 35.778c-0.534,0.423 -1.076,0.838 -1.529,1.349 -0.108,0.123 0.004,0.328 0.173,0.269 0.682,-0.24 1.307,-0.591 1.939,-0.938 0.592,-0.326 -0.066,-1.089 -0.583,-0.68z"/>
   <path class="fil0 str0" d="M37.994 38.747c-2.272,-1.386 -5.874,-1.338 -8.262,-0.295 -0.509,0.223 -0.105,0.884 0.363,0.774 1.351,-0.314 2.629,-0.652 4.028,-0.684 1.304,-0.03 2.551,0.186 3.844,0.297 0.054,0.004 0.07,-0.066 0.027,-0.092z"/>
   <path class="fil0 str0" d="M40.992 36.45c-1.622,-0.576 -3.705,-0.4 -5.103,0.652 -0.361,0.272 0.13,0.657 0.446,0.521 1.584,-0.682 2.889,-1.11 4.642,-1.07 0.067,0.001 0.074,-0.082 0.015,-0.103z"/>
   <path class="fil0 str0" d="M30.455 78.168c-0.961,-0.615 -2.199,-0.975 -3.266,-1.376 -1.054,-0.397 -2.09,-0.669 -3.181,-0.926 -0.065,-0.015 -0.108,0.064 -0.048,0.101 1.009,0.627 1.986,1.186 3.078,1.668 0.989,0.436 2.031,1 3.089,1.234 0.448,0.099 0.742,-0.437 0.328,-0.701z"/>
   <path class="fil0 str0" d="M60.528 71.885c-0.536,0.221 -0.966,0.685 -1.42,1.039 -0.465,0.363 -0.943,0.709 -1.429,1.042 -0.974,0.668 -1.982,1.28 -3.027,1.829 -2.133,1.119 -4.38,1.992 -6.717,2.576 -4.535,1.135 -9.077,1.139 -13.661,0.464 0.816,-0.14 1.597,-0.391 2.227,-0.717 0.428,-0.221 0.104,-0.793 -0.321,-0.684 -0.893,0.229 -1.748,0.541 -2.659,0.706 -0.88,0.159 -1.789,0.167 -2.66,0.356 -0.051,0.011 -0.071,0.089 -0.016,0.112 0.869,0.352 1.961,0.418 3.026,0.286 4.547,1.572 9.708,1.498 14.344,0.391 2.423,-0.578 4.805,-1.444 7.011,-2.606 1.084,-0.571 2.136,-1.207 3.139,-1.912 0.862,-0.607 2.244,-1.411 2.741,-2.361 0.205,-0.393 -0.231,-0.664 -0.578,-0.521z"/>
   <path class="fil0 str0" d="M70.958 69.172c-2.044,0.555 -4.071,1.153 -6.092,1.785 -1.227,0.384 -2.534,0.733 -3.773,1.202 0.912,-1.086 1.731,-2.29 2.421,-3.496 0.063,-0.111 -0.092,-0.2 -0.177,-0.123 -1.049,0.939 -2.086,2.009 -2.977,3.141 -0.102,-0.002 -0.207,0.027 -0.301,0.099 -1.948,1.49 -3.827,2.978 -6.002,4.14 -2.106,1.125 -4.337,2.002 -6.644,2.615 -2.304,0.614 -4.675,0.963 -7.057,1.05 -1.842,0.067 -3.662,-0.142 -5.488,-0.245 0.216,-0.275 0.08,-0.752 -0.41,-0.774 -3.786,-0.164 -7.408,-0.939 -10.765,-2.757 -1.409,-0.763 -2.752,-1.665 -3.898,-2.792 -1.278,-1.256 -1.97,-2.613 -2.677,-4.23 -0.053,-0.121 -0.288,-0.128 -0.282,0.035 0.134,3.308 3.307,6.101 5.935,7.643 3.114,1.829 6.863,2.955 10.511,3.063 2.177,0.922 4.738,1.002 7.074,0.953 2.473,-0.051 4.94,-0.417 7.331,-1.054 2.387,-0.635 4.708,-1.545 6.887,-2.711 1.836,-0.982 3.718,-2.149 5.279,-3.579 0.143,0.058 0.315,0.052 0.432,-0.07 0.024,-0.026 0.048,-0.053 0.072,-0.079 1.605,-0.278 3.201,-0.834 4.737,-1.288 2.029,-0.601 4.048,-1.235 6.052,-1.912 0.429,-0.145 0.238,-0.732 -0.188,-0.616z"/>
   <path class="fil0 str0" d="M21.026 71.141c-0.604,-0.447 -1.397,-0.623 -2.062,-0.982 -0.764,-0.413 -1.482,-0.904 -2.134,-1.478 -1.288,-1.13 -2.317,-2.491 -3.115,-4.004 -0.017,-0.032 -0.07,-0.011 -0.063,0.024 0.373,1.74 1.269,3.309 2.533,4.561 0.638,0.633 1.363,1.19 2.144,1.638 0.696,0.399 1.574,0.907 2.397,0.891 0.306,-0.006 0.613,-0.418 0.3,-0.65z"/>
   <path class="fil0 str1" d="M20.793 67.006c-1.115,-0.605 -2.505,-0.823 -3.747,-0.981 -0.077,-0.01 -0.148,-0.002 -0.214,0.017 -0.923,-0.291 -1.763,-0.775 -2.474,-1.521 -0.627,-0.659 -1.144,-1.514 -1.52,-2.412 0.098,-0.717 0.013,-1.484 0.011,-2.198 -0.001,-0.268 0.007,-0.54 0.013,-0.812 0.312,0.333 0.651,0.644 1.005,0.93 0.004,0.119 0.063,0.24 0.193,0.322 0.419,0.266 0.854,0.489 1.297,0.687 0.07,0.038 0.14,0.079 0.209,0.116 0.054,0.028 0.111,0.041 0.166,0.044 1.287,0.526 2.64,0.867 3.942,1.389 0.022,0.009 0.045,-0.018 0.02,-0.032 -1.439,-0.792 -2.728,-1.78 -4.206,-2.475 -0.973,-0.842 -2.014,-1.587 -2.727,-2.658l0 0c-0.001,-0.004 -0.005,-0.006 -0.007,-0.009 -0.142,-0.215 -0.274,-0.442 -0.387,-0.687 -0.436,-0.948 -0.542,-1.969 -0.426,-3 0.082,-0.748 0.338,-1.476 0.481,-2.215 0.001,0.001 0.002,0.002 0.003,0.003 0,-0.004 0,-0.009 -0.001,-0.014 0.024,-0.122 0.043,-0.244 0.059,-0.367 1.613,1.266 3.813,1.66 5.794,1.157 0.04,-0.01 0.032,-0.068 -0.01,-0.066 -2.295,0.082 -4.334,-0.798 -6.041,-2.278 -0.073,-0.063 -0.156,-0.09 -0.236,-0.093 -0.635,-3.32 -0.915,-7.704 2.322,-9.46 0.374,-0.203 0.018,-0.625 -0.32,-0.493 -3.726,1.459 -3.541,6.684 -2.299,10.081 -0.096,0.11 -0.12,0.275 0.017,0.43 0.087,0.098 0.179,0.191 0.271,0.283 0.06,0.134 0.121,0.263 0.185,0.389 -1.03,1.65 -1.434,4.172 -0.701,5.926 0.235,0.562 0.57,1.099 0.969,1.597 -0.04,0.381 -0.063,0.764 -0.103,1.14 -0.091,0.849 -0.326,1.793 -0.214,2.641 0.013,0.101 0.075,0.182 0.157,0.234 0.201,0.915 0.663,1.758 1.384,2.53 1.239,1.33 3.13,2.165 4.956,2.079 0.094,-0.005 0.173,-0.029 0.237,-0.064 0.649,0.067 1.3,0.079 1.921,-0.014 0.075,-0.012 0.084,-0.113 0.021,-0.146z"/>
   <path class="fil0 str0" d="M22.775 72.629c-0.978,-1.097 -2.517,-1.933 -3.791,-2.634 -0.446,-0.245 -0.867,0.351 -0.423,0.652 1.225,0.83 2.646,1.785 4.085,2.182 0.125,0.035 0.215,-0.104 0.129,-0.2z"/>
   <path class="fil0 str1" d="M21.582 37.185c-3.272,0.263 -7.238,1.527 -9.205,4.334 -0.95,1.356 -1.333,3.031 -1.332,4.668 0,0.932 0.127,1.879 0.344,2.786 0.078,0.324 0.165,0.719 0.289,1.105 -0.188,0.146 -0.267,0.417 -0.05,0.636 0.212,0.214 0.453,0.409 0.713,0.586 0.036,0.036 0.074,0.069 0.114,0.1 0.01,0.007 0.022,0.004 0.027,-0.006 0.843,0.54 1.863,0.898 2.787,1.082 1.095,0.218 2.723,0.342 3.694,-0.318 0.037,-0.024 0.035,-0.078 -0.013,-0.089 -0.491,-0.114 -1.01,-0.067 -1.512,-0.108 -0.649,-0.053 -1.281,-0.162 -1.912,-0.324 -1.146,-0.296 -2.045,-0.839 -3.026,-1.423 -0.055,-0.277 -0.127,-0.551 -0.17,-0.804 -0.156,-0.928 -0.324,-1.85 -0.366,-2.792 -0.072,-1.592 0.19,-3.244 1.065,-4.603 0.831,-1.293 2.121,-2.189 3.51,-2.8 1.661,-0.731 3.423,-0.879 5.139,-1.385 0.377,-0.111 0.32,-0.679 -0.096,-0.645z"/>
   <path class="fil0 str0" d="M42.588 6.352c-0.019,0.035 -0.036,0.07 -0.054,0.105 -0.017,-0.114 -0.197,-0.144 -0.286,-0.078 -0.376,0.277 -0.794,0.522 -1.244,0.202 -0.392,-0.277 -0.507,-0.941 -0.233,-1.338 0.022,-0.031 -0.031,-0.063 -0.054,-0.037 -0.009,0.01 -0.017,0.02 -0.026,0.031 -0.003,-0.002 -0.007,-0.004 -0.012,-0.004 -1.091,0.035 -2.235,0.179 -3.308,0.409 -0.014,-0.072 -0.064,-0.138 -0.157,-0.162 -1.876,-0.488 -4.272,-0.55 -6.144,-0.031 -0.016,0.004 -0.012,0.023 0.003,0.024 0.098,0.008 0.197,0.014 0.295,0.02 0.001,0.27 -0.197,0.582 -0.393,0.745 -0.235,0.195 -0.464,0.186 -0.746,0.23 -0.256,0.039 -0.233,0.395 0,0.45 0.021,0.005 0.042,0.005 0.063,0.008 -0.095,0.265 -0.157,0.545 -0.21,0.819 -0.04,0.21 0.289,0.248 0.315,0.039 0.035,-0.28 0.063,-0.569 0.052,-0.853 0.311,-0.024 0.613,-0.228 0.798,-0.463 0.109,-0.14 0.194,-0.305 0.233,-0.477 0.043,-0.186 0.002,-0.322 -0.041,-0.493 0.892,0.048 1.789,0.014 2.681,0.071 0.96,0.06 1.907,0.222 2.862,0.306 0.003,0.125 0.127,0.258 0.301,0.233 1.121,-0.162 2.285,-0.44 3.357,-0.811 -0.187,0.231 -0.287,0.468 -0.262,0.789 0.024,0.321 0.178,0.614 0.439,0.806 0.412,0.302 1.183,0.291 1.551,-0.106 -0.397,0.82 -0.7,1.688 -1.035,2.533 -0.43,1.088 -0.924,2.181 -1.253,3.303 -0.077,0.261 0.322,0.326 0.42,0.104 0.454,-1.015 0.774,-2.108 1.135,-3.16 0.361,-1.05 0.784,-2.102 1.015,-3.19 0.007,-0.035 -0.045,-0.055 -0.062,-0.024z"/>
   <path class="fil0 str0" d="M10.83 14.542c-0.051,-0.02 -0.122,0.033 -0.07,0.083 0.382,0.364 0.704,0.718 0.824,1.248 0.148,0.651 -0.098,1.165 -0.413,1.719 -0.095,0.167 0.143,0.313 0.273,0.19 0.959,-0.917 0.623,-2.745 -0.614,-3.24z"/>
   <path class="fil0 str0" d="M24.878 37.622c-1.015,-3.705 -3.102,-7.019 -5.385,-10.068 -2.524,-3.371 -5.267,-6.585 -7.847,-9.916 -0.021,-0.028 -0.071,-0.007 -0.053,0.028 1.895,3.611 4.713,6.701 7.143,9.952 2.326,3.115 4.347,6.422 5.452,10.175 0.116,0.396 0.805,0.246 0.69,-0.171z"/>
   <path class="fil0 str0" d="M13.202 13.939c-0.771,-0.124 -1.731,0.257 -2.182,0.904 -0.014,0.021 0.016,0.037 0.033,0.029 0.336,-0.146 0.663,-0.29 1.023,-0.37 0.355,-0.077 0.694,-0.046 1.051,-0.062 0.292,-0.013 0.407,-0.447 0.075,-0.501z"/>
   <path class="fil0 str0" d="M32.525 78.635c-0.047,-0.315 -0.592,-0.282 -0.664,0 -0.314,1.217 -0.174,2.631 -0.194,3.882 -0.022,1.384 -0.067,2.764 -0.12,4.146 -0.053,1.382 -0.106,2.764 -0.155,4.146 -0.048,1.365 -0.203,2.784 -0.068,4.145 0.004,0.033 0.059,0.045 0.067,0.009 0.253,-1.24 0.251,-2.549 0.336,-3.809 0.097,-1.439 0.191,-2.879 0.284,-4.318 0.089,-1.383 0.182,-2.765 0.302,-4.146 0.113,-1.306 0.407,-2.754 0.212,-4.055z"/>
   <path class="fil0 str2" d="M92.023 46.062c-1.58,-4.934 -5.037,-9.918 -9.739,-12.32 -0.046,-0.023 -0.108,0.032 -0.063,0.072 1.942,1.705 3.807,3.404 5.322,5.518 1.527,2.13 2.735,4.463 3.505,6.972 0.842,2.731 1.143,5.624 0.938,8.472 -0.105,1.477 -0.355,2.937 -0.742,4.366 -0.386,1.426 -0.992,2.75 -1.475,4.139 -0.159,0.46 0.574,0.669 0.804,0.305 1.578,-2.484 2.226,-5.758 2.459,-8.658 0.239,-2.986 -0.096,-6.012 -1.009,-8.866z"/>
  </g>
 </g>
</svg>
