<svg width="15" height="15" viewBox="0 0 15 15" fill="none" xmlns="http://www.w3.org/2000/svg">
<path d="M10.7832 0.935547H4.2207C3.44405 0.935547 2.81445 1.56515 2.81445 2.3418V12.6543C2.81445 13.4309 3.44405 14.0605 4.2207 14.0605H10.7832C11.5599 14.0605 12.1895 13.4309 12.1895 12.6543V2.3418C12.1895 1.56515 11.5599 0.935547 10.7832 0.935547Z" stroke="white" stroke-width="1.49989" stroke-linejoin="round"/>
<path d="M6.09277 2.3418H8.90527" stroke="white" stroke-width="1.49989" stroke-linecap="round" stroke-linejoin="round"/>
<path d="M9.77093 8.33342C9.66037 8.21563 9.52645 8.1222 9.37774 8.05909C9.22903 7.99599 9.06879 7.96459 8.90726 7.96692C8.56741 7.96692 8.26009 8.09612 8.04183 8.33108C7.82357 8.56604 7.7137 8.89123 7.7389 9.23928C7.789 9.92717 8.31312 10.4864 8.90726 10.4864C9.5014 10.4864 10.0246 9.92717 10.0753 9.23987C10.1011 8.89475 9.99271 8.57278 9.77093 8.33342Z" fill="white"/>
<path d="M10.89 13.123H6.92374C6.87211 13.1239 6.82093 13.1134 6.7738 13.0922C6.72667 13.0711 6.68475 13.04 6.65099 13.0009C6.61438 12.957 6.58811 12.9055 6.57411 12.8501C6.56011 12.7948 6.55875 12.7369 6.57013 12.681C6.66534 12.1665 6.96212 11.7344 7.42853 11.4312C7.84278 11.1619 8.36778 11.0137 8.90685 11.0137C9.44591 11.0137 9.97091 11.1619 10.3852 11.4312C10.8516 11.7344 11.1483 12.1665 11.2436 12.681C11.2549 12.7369 11.2536 12.7948 11.2396 12.8501C11.2256 12.9055 11.1993 12.957 11.1627 13.0009C11.1289 13.04 11.087 13.0711 11.0399 13.0922C10.9928 13.1134 10.9416 13.1239 10.89 13.123V13.123Z" fill="white"/>
</svg>
